<svg width="119" height="93" viewBox="0 0 119 93" fill="none" xmlns="http://www.w3.org/2000/svg">
<path d="M44.4893 41.1402C43.4439 41.1402 42.4695 40.9437 41.5662 40.5506C40.6629 40.1575 39.8809 39.6724 39.2201 39.0953C38.5677 38.5098 38.0868 37.9327 37.7773 37.364C37.8443 37.272 37.9906 37.1256 38.2164 36.9249C38.4423 36.7241 38.6806 36.5234 38.9316 36.3227C39.1825 36.1136 39.3874 35.963 39.5463 35.871C39.7303 36.1387 39.9687 36.4523 40.2614 36.8119C40.5625 37.1716 40.9222 37.5229 41.3403 37.8658C41.7585 38.2087 42.2311 38.4973 42.758 38.7314C43.2933 38.9573 43.8788 39.0702 44.5144 39.0702C45.3174 39.0702 45.9656 38.9196 46.459 38.6185C46.9525 38.3091 47.3121 37.9285 47.538 37.4769C47.7638 37.0169 47.8767 36.561 47.8767 36.1094C47.8767 35.5406 47.6801 35.0597 47.287 34.6666C46.9023 34.2652 46.3837 33.9181 45.7314 33.6253C45.0873 33.3326 44.3764 33.0691 43.5986 32.8349C42.6116 32.5255 41.7418 32.1742 40.9891 31.7811C40.2363 31.388 39.6467 30.8987 39.2201 30.3132C38.7936 29.7278 38.5803 28.9917 38.5803 28.1052C38.5803 27.2102 38.827 26.4659 39.3205 25.872C39.8139 25.2698 40.4663 24.8182 41.2776 24.5171C42.0973 24.216 42.988 24.0654 43.9499 24.0654C44.8281 24.0654 45.6477 24.1825 46.4088 24.4167C47.1783 24.6509 47.8474 24.9436 48.4162 25.2949C48.9849 25.6378 49.4073 25.9891 49.6833 26.3488C49.608 26.4742 49.4867 26.6457 49.3195 26.8631C49.1522 27.0722 48.9765 27.2813 48.7925 27.4904C48.6085 27.6995 48.4538 27.8626 48.3283 27.9797C48.1025 27.7288 47.7805 27.4528 47.3623 27.1517C46.9441 26.8422 46.4339 26.5788 45.8317 26.3613C45.2379 26.1355 44.5646 26.0226 43.8119 26.0226C42.9755 26.0226 42.3064 26.2233 41.8045 26.6248C41.3027 27.0179 41.0518 27.549 41.0518 28.2181C41.0518 28.7032 41.1982 29.0963 41.4909 29.3974C41.792 29.6985 42.1642 29.9452 42.6075 30.1376C43.0591 30.3216 43.5149 30.4805 43.975 30.6143C44.803 30.8736 45.5975 31.1413 46.3587 31.4173C47.1281 31.6933 47.814 32.0236 48.4162 32.4084C49.0267 32.7847 49.5076 33.2573 49.8589 33.826C50.2102 34.3864 50.3858 35.0764 50.3858 35.8961C50.3858 36.8078 50.1517 37.6651 49.6833 38.468C49.2149 39.2626 48.5374 39.9066 47.6509 40.4C46.7727 40.8935 45.7188 41.1402 44.4893 41.1402Z" fill="white"/>
<path d="M58.4822 41.2531C57.4367 41.2531 56.4874 41.1151 55.6343 40.8391C54.7895 40.5548 54.1163 40.1031 53.6144 39.4842C53.1126 38.8569 52.8617 38.0247 52.8617 36.9876C52.8617 35.9923 53.1419 35.1726 53.7022 34.5286C54.2626 33.8762 55.0195 33.3911 55.973 33.0733C56.9349 32.7555 58.0096 32.5966 59.1973 32.5966C59.7409 32.5966 60.2762 32.6384 60.8032 32.722C61.3301 32.8057 61.7859 32.8977 62.1706 32.998C62.5637 33.0984 62.8272 33.1779 62.961 33.2364C62.9359 32.9604 62.8857 32.6802 62.8105 32.3958C62.7352 32.1115 62.6307 31.8564 62.4968 31.6305C62.179 31.0702 61.7148 30.6101 61.1042 30.2505C60.5021 29.8825 59.7451 29.6985 58.8335 29.6985C57.8633 29.6985 57.0436 29.9076 56.3745 30.3258C55.7137 30.744 55.2161 31.2333 54.8815 31.7936L52.8491 30.4512C53.3928 29.6399 54.1999 28.9708 55.2705 28.4439C56.3494 27.917 57.5663 27.6535 58.9213 27.6535C60.3264 27.6535 61.489 27.9254 62.409 28.469C63.329 29.0043 64.0023 29.7069 64.4289 30.5767C64.6463 31.02 64.8178 31.5051 64.9433 32.032C65.0687 32.5589 65.144 33.2113 65.1691 33.9891C65.1858 34.8088 65.2025 35.5114 65.2193 36.0968C65.2444 36.6739 65.2694 37.1674 65.2945 37.5772C65.3364 38.1209 65.42 38.4722 65.5455 38.6311C65.6709 38.79 65.8507 38.8694 66.0849 38.8694C66.3526 38.8694 66.5742 38.7565 66.7498 38.5307C66.9339 38.2965 67.0426 37.9703 67.076 37.5521L68.2804 38.882C68.2302 39.5846 67.9835 40.1198 67.5402 40.4879C67.0969 40.8559 66.5784 41.0399 65.9846 41.0399C65.282 41.0399 64.7091 40.8475 64.2658 40.4628C63.8309 40.0697 63.5883 39.6473 63.5381 39.1956C63.3625 39.5051 63.0363 39.8187 62.5596 40.1366C62.0828 40.4544 61.4932 40.722 60.7906 40.9395C60.0964 41.1486 59.3269 41.2531 58.4822 41.2531ZM58.9338 39.2835C59.7451 39.2835 60.5271 39.1036 61.2799 38.744C62.0326 38.3843 62.6223 37.9536 63.0488 37.4518C63.0405 36.9416 63.0405 36.4816 63.0488 36.0717C63.0572 35.6619 63.0698 35.2855 63.0865 34.9426C62.8439 34.859 62.3797 34.7503 61.6939 34.6164C61.0081 34.4742 60.2344 34.4032 59.3729 34.4032C58.2605 34.4032 57.3154 34.6206 56.5376 35.0555C55.7598 35.4905 55.3708 36.0968 55.3708 36.8747C55.3708 37.8198 55.7012 38.4596 56.3619 38.7942C57.0311 39.1204 57.8883 39.2835 58.9338 39.2835Z" fill="white"/>
<path d="M76.8568 27.3022C77.4256 27.411 77.94 27.5364 78.4 27.6786C78.86 27.8124 79.1318 27.8961 79.2154 27.9295C79.0733 28.4983 78.8683 29.205 78.6007 30.0498C78.3331 30.8945 78.0278 31.8145 77.6849 32.8098C77.3503 33.7968 76.9948 34.7963 76.6185 35.8083C76.2505 36.8203 75.8866 37.7821 75.527 38.6938C75.1757 39.6055 74.8495 40.3959 74.5484 41.065C74.2724 41.1151 73.9044 41.1402 73.4444 41.1402C73.2353 41.1402 73.0346 41.1319 72.8422 41.1151C72.6582 41.0984 72.4993 41.0817 72.3655 41.065C71.7298 39.7518 71.1151 38.33 70.5212 36.7994C69.9358 35.2688 69.3837 33.734 68.8652 32.1951C68.355 30.6478 67.8992 29.2008 67.4977 27.8543C67.6482 27.8124 67.8615 27.7581 68.1375 27.6912C68.4219 27.6243 68.7104 27.5532 69.0032 27.4779C69.2959 27.4026 69.5385 27.3399 69.7308 27.2897C69.8563 27.8166 70.0361 28.4565 70.2703 29.2092C70.5045 29.9536 70.7638 30.7523 71.0481 31.6054C71.3325 32.4502 71.6211 33.2866 71.9138 34.1146C72.2149 34.9426 72.4993 35.7037 72.7669 36.3979C73.0346 37.0921 73.2604 37.6567 73.4444 38.0916C73.7037 37.4225 73.9922 36.6363 74.31 35.733C74.6362 34.8213 74.9624 33.8637 75.2886 32.86C75.6148 31.8564 75.9159 30.8736 76.1919 29.9118C76.4679 28.9416 76.6896 28.0717 76.8568 27.3022Z" fill="white"/>
<path d="M91.1441 41.5292C90.9601 41.2113 90.705 40.814 90.3788 40.3373C90.0526 39.8522 89.6888 39.3336 89.2873 38.7816C88.8859 38.2296 88.4761 37.6901 88.0579 37.1632C87.6397 36.6363 87.2466 36.1679 86.8786 35.7581C86.5189 35.3483 86.2178 35.0472 85.9753 34.8548C85.8164 34.9803 85.6073 35.1475 85.348 35.3566C85.0887 35.5574 84.8461 35.7539 84.6203 35.9463C84.3945 36.1387 84.2481 36.2683 84.1812 36.3352C84.1729 36.6948 84.1561 37.1256 84.131 37.6274C84.1143 38.1209 84.0934 38.6185 84.0683 39.1204C84.0432 39.6222 84.0181 40.0738 83.993 40.4753C83.9679 40.8768 83.9512 41.1653 83.9428 41.341C83.5414 41.3912 83.1483 41.4162 82.7635 41.4162C82.5126 41.4162 82.2701 41.4079 82.0359 41.3912C81.8101 41.3744 81.6052 41.3493 81.4211 41.3159C81.4379 41.1235 81.463 40.6886 81.4964 40.0111C81.5299 39.3336 81.5675 38.4973 81.6093 37.502C81.6512 36.5067 81.6972 35.4235 81.7473 34.2526C81.7975 33.0817 81.8435 31.9024 81.8853 30.7147C81.9355 29.527 81.9815 28.4021 82.0233 27.3399C82.0652 26.2693 82.0944 25.3409 82.1112 24.5547C82.1363 23.7602 82.1488 23.183 82.1488 22.8234C82.3077 22.815 82.4834 22.8067 82.6757 22.7983C82.8681 22.7899 83.0563 22.7858 83.2403 22.7858C83.7839 22.7858 84.2314 22.836 84.5827 22.9363C84.5827 23.5636 84.5743 24.2829 84.5576 25.0942C84.5409 25.9055 84.52 26.7419 84.4949 27.6033C84.4781 28.4648 84.453 29.2928 84.4196 30.0874C84.3945 30.882 84.3694 31.5845 84.3443 32.1951C84.3192 32.8057 84.2983 33.2573 84.2816 33.55C84.7667 33.0566 85.3522 32.5547 86.038 32.0445C86.7238 31.526 87.4306 31.0283 88.1582 30.5516C88.8942 30.0749 89.5843 29.6441 90.2283 29.2594C90.8723 28.8746 91.395 28.561 91.7965 28.3185C91.9303 28.4606 92.0851 28.653 92.2607 28.8956C92.4447 29.1297 92.6162 29.3681 92.7751 29.6107C92.9423 29.8449 93.0678 30.033 93.1514 30.1752C92.8587 30.3425 92.4698 30.5683 91.9847 30.8527C91.4996 31.1371 90.981 31.4465 90.429 31.7811C89.877 32.1156 89.3584 32.4418 88.8733 32.7597C88.3966 33.0691 88.0202 33.3284 87.7442 33.5375C87.97 33.7131 88.313 34.0519 88.773 34.5537C89.233 35.0555 89.7432 35.6494 90.3036 36.3352C90.8639 37.0127 91.4201 37.7278 91.9721 38.4805C92.5242 39.2249 93.0051 39.9275 93.4149 40.5882C93.3229 40.6551 93.1222 40.7555 92.8127 40.8893C92.5033 41.0148 92.1854 41.1402 91.8592 41.2657C91.533 41.3995 91.2947 41.4873 91.1441 41.5292Z" fill="white"/>
<path d="M100.163 41.2531C99.1171 41.2531 98.1678 41.1151 97.3147 40.8391C96.4699 40.5548 95.7966 40.1031 95.2948 39.4842C94.793 38.8569 94.5421 38.0247 94.5421 36.9876C94.5421 35.9923 94.8223 35.1726 95.3826 34.5286C95.943 33.8762 96.6999 33.3911 97.6534 33.0733C98.6153 32.7555 99.69 32.5966 100.878 32.5966C101.421 32.5966 101.957 32.6384 102.484 32.722C103.01 32.8057 103.466 32.8977 103.851 32.998C104.244 33.0984 104.508 33.1779 104.641 33.2364C104.616 32.9604 104.566 32.6802 104.491 32.3958C104.416 32.1115 104.311 31.8564 104.177 31.6305C103.859 31.0702 103.395 30.6101 102.785 30.2505C102.182 29.8825 101.426 29.6985 100.514 29.6985C99.5436 29.6985 98.724 29.9076 98.0549 30.3258C97.3941 30.744 96.8965 31.2333 96.5619 31.7936L94.5295 30.4512C95.0732 29.6399 95.8803 28.9708 96.9509 28.4439C98.0298 27.917 99.2467 27.6535 100.602 27.6535C102.007 27.6535 103.169 27.9254 104.089 28.469C105.009 29.0043 105.683 29.7069 106.109 30.5767C106.327 31.02 106.498 31.5051 106.624 32.032C106.749 32.5589 106.824 33.2113 106.849 33.9891C106.866 34.8088 106.883 35.5114 106.9 36.0968C106.925 36.6739 106.95 37.1674 106.975 37.5772C107.017 38.1209 107.1 38.4722 107.226 38.6311C107.351 38.79 107.531 38.8694 107.765 38.8694C108.033 38.8694 108.255 38.7565 108.43 38.5307C108.614 38.2965 108.723 37.9703 108.756 37.5521L109.961 38.882C109.911 39.5846 109.664 40.1198 109.221 40.4879C108.777 40.8559 108.259 41.0399 107.665 41.0399C106.962 41.0399 106.389 40.8475 105.946 40.4628C105.511 40.0697 105.269 39.6473 105.219 39.1956C105.043 39.5051 104.717 39.8187 104.24 40.1366C103.763 40.4544 103.174 40.722 102.471 40.9395C101.777 41.1486 101.007 41.2531 100.163 41.2531ZM100.614 39.2835C101.426 39.2835 102.208 39.1036 102.96 38.744C103.713 38.3843 104.303 37.9536 104.729 37.4518C104.721 36.9416 104.721 36.4816 104.729 36.0717C104.738 35.6619 104.75 35.2855 104.767 34.9426C104.524 34.859 104.06 34.7503 103.374 34.6164C102.688 34.4742 101.915 34.4032 101.053 34.4032C99.9409 34.4032 98.9958 34.6206 98.218 35.0555C97.4401 35.4905 97.0512 36.0968 97.0512 36.8747C97.0512 37.8198 97.3816 38.4596 98.0423 38.7942C98.7114 39.1204 99.5687 39.2835 100.614 39.2835Z" fill="white"/>
<path d="M39.2828 65.8554C39.2828 65.5376 39.287 65.019 39.2954 64.2997C39.3037 63.5804 39.3121 62.7441 39.3205 61.7906C39.3372 60.8287 39.3539 59.8209 39.3707 58.767C39.3874 57.7048 39.3999 56.6677 39.4083 55.6557C39.425 54.6353 39.4376 53.7069 39.4459 52.8705C39.4627 52.0258 39.4752 51.3441 39.4836 50.8256C39.4919 50.2987 39.4961 50.0101 39.4961 49.9599C40.0398 49.9097 40.7591 49.8554 41.654 49.7968C42.5573 49.7299 43.5149 49.6965 44.527 49.6965C45.4303 49.6965 46.2374 49.8261 46.9483 50.0854C47.6592 50.3363 48.2196 50.7378 48.6294 51.2898C49.0393 51.8418 49.2442 52.5653 49.2442 53.4602C49.2442 54.0791 49.1062 54.6729 48.8302 55.2417C48.5542 55.8021 48.2029 56.2788 47.7763 56.6719C47.3581 57.0566 46.9232 57.2992 46.4716 57.3996C46.5468 57.3912 46.643 57.3912 46.7601 57.3996C47.4794 57.4247 48.1318 57.5877 48.7173 57.8888C49.3111 58.1816 49.7836 58.5914 50.1349 59.1183C50.4862 59.6453 50.6619 60.26 50.6619 60.9626C50.6619 62.0248 50.436 62.8904 49.9844 63.5595C49.5327 64.2286 48.9013 64.743 48.09 65.1027C47.287 65.4623 46.3545 65.709 45.2923 65.8429C44.2301 65.9767 43.0884 66.0436 41.8673 66.0436C41.3905 66.0436 40.9263 66.0311 40.4747 66.006C40.023 65.9725 39.6258 65.9223 39.2828 65.8554ZM41.8798 56.7221C42.7998 56.7137 43.5108 56.6803 44.0126 56.6217C44.5144 56.5632 44.9326 56.4461 45.2672 56.2704C45.7523 56.0864 46.1705 55.7686 46.5217 55.317C46.873 54.8569 47.0487 54.3426 47.0487 53.7738C47.0487 52.9542 46.8019 52.3771 46.3085 52.0425C45.815 51.708 45.1543 51.5407 44.3262 51.5407C43.8662 51.5407 43.402 51.5658 42.9337 51.616C42.4736 51.6661 42.1098 51.708 41.8422 51.7414L41.8798 56.7221ZM41.9049 63.6975C41.9635 63.6975 42.0429 63.6975 42.1433 63.6975C42.252 63.6975 42.3691 63.6975 42.4946 63.6975C43.4815 63.6975 44.4182 63.6306 45.3048 63.4968C46.1914 63.363 46.9148 63.0953 47.4752 62.6939C48.044 62.284 48.3283 61.6819 48.3283 60.8873C48.3283 60.3102 48.1485 59.8627 47.7889 59.5449C47.4292 59.2187 46.9483 58.9887 46.3461 58.8549C45.7439 58.721 45.0706 58.6541 44.3262 58.6541C44.1841 58.6541 43.954 58.6583 43.6362 58.6667C43.3268 58.675 43.0089 58.6876 42.6827 58.7043C42.3566 58.7127 42.1015 58.7252 41.9174 58.742L41.9049 63.6975Z" fill="white"/>
<path d="M58.7517 66.3447C57.7062 66.3447 56.7569 66.2067 55.9038 65.9307C55.0591 65.6463 54.3858 65.1947 53.884 64.5757C53.3821 63.9485 53.1312 63.1162 53.1312 62.0791C53.1312 61.0838 53.4114 60.2642 53.9718 59.6202C54.5322 58.9678 55.2891 58.4827 56.2426 58.1649C57.2044 57.847 58.2792 57.6881 59.4668 57.6881C60.0105 57.6881 60.5458 57.7299 61.0727 57.8136C61.5996 57.8972 62.0554 57.9892 62.4402 58.0896C62.8333 58.1899 63.0967 58.2694 63.2306 58.3279C63.2055 58.0519 63.1553 57.7718 63.08 57.4874C63.0047 57.203 62.9002 56.9479 62.7664 56.7221C62.4485 56.1617 61.9843 55.7017 61.3738 55.3421C60.7716 54.974 60.0147 54.79 59.103 54.79C58.1328 54.79 57.3131 54.9991 56.644 55.4173C55.9833 55.8355 55.4856 56.3248 55.1511 56.8852L53.1187 55.5428C53.6623 54.7315 54.4694 54.0624 55.54 53.5355C56.6189 53.0085 57.8359 52.7451 59.1908 52.7451C60.5959 52.7451 61.7585 53.0169 62.6785 53.5606C63.5986 54.0958 64.2719 54.7984 64.6984 55.6682C64.9159 56.1115 65.0873 56.5966 65.2128 57.1236C65.3383 57.6505 65.4135 58.3029 65.4386 59.0807C65.4553 59.9003 65.4721 60.6029 65.4888 61.1884C65.5139 61.7655 65.539 62.259 65.5641 62.6688C65.6059 63.2124 65.6895 63.5637 65.815 63.7226C65.9404 63.8815 66.1203 63.961 66.3545 63.961C66.6221 63.961 66.8437 63.8481 67.0194 63.6223C67.2034 63.3881 67.3121 63.0619 67.3456 62.6437L68.55 63.9735C68.4998 64.6761 68.2531 65.2114 67.8098 65.5794C67.3665 65.9474 66.8479 66.1314 66.2541 66.1314C65.5515 66.1314 64.9786 65.939 64.5353 65.5543C64.1004 65.1612 63.8579 64.7388 63.8077 64.2872C63.632 64.5966 63.3058 64.9103 62.8291 65.2281C62.3524 65.5459 61.7627 65.8136 61.0601 66.0311C60.3659 66.2402 59.5965 66.3447 58.7517 66.3447ZM59.2034 64.375C60.0147 64.375 60.7967 64.1952 61.5494 63.8355C62.3022 63.4759 62.8918 63.0452 63.3184 62.5433C63.31 62.0331 63.31 61.5731 63.3184 61.1633C63.3267 60.7535 63.3393 60.3771 63.356 60.0342C63.1135 59.9505 62.6493 59.8418 61.9634 59.708C61.2776 59.5658 60.5039 59.4947 59.6425 59.4947C58.5301 59.4947 57.585 59.7122 56.8071 60.1471C56.0293 60.582 55.6404 61.1884 55.6404 61.9662C55.6404 62.9113 55.9707 63.5512 56.6315 63.8857C57.3006 64.2119 58.1579 64.375 59.2034 64.375Z" fill="white"/>
<path d="M79.652 66.6207C79.468 66.3029 79.2129 65.9056 78.8867 65.4289C78.5605 64.9438 78.1967 64.4252 77.7952 63.8732C77.3938 63.3212 76.9839 62.7817 76.5657 62.2548C76.1475 61.7279 75.7544 61.2595 75.3864 60.8496C75.0268 60.4398 74.7257 60.1387 74.4831 59.9464C74.3242 60.0718 74.1151 60.2391 73.8559 60.4482C73.5966 60.6489 73.354 60.8455 73.1282 61.0378C72.9024 61.2302 72.756 61.3598 72.6891 61.4268C72.6807 61.7864 72.664 62.2171 72.6389 62.719C72.6222 63.2124 72.6013 63.7101 72.5762 64.2119C72.5511 64.7137 72.526 65.1654 72.5009 65.5669C72.4758 65.9683 72.4591 66.2569 72.4507 66.4325C72.0493 66.4827 71.6562 66.5078 71.2714 66.5078C71.0205 66.5078 70.778 66.4994 70.5438 66.4827C70.3179 66.466 70.113 66.4409 69.929 66.4074C69.9458 66.2151 69.9708 65.7801 70.0043 65.1027C70.0378 64.4252 70.0754 63.5888 70.1172 62.5935C70.159 61.5982 70.205 60.5151 70.2552 59.3442C70.3054 58.1732 70.3514 56.9939 70.3932 55.8062C70.4434 54.6186 70.4894 53.4936 70.5312 52.4314C70.573 51.3609 70.6023 50.4325 70.619 49.6463C70.6441 48.8517 70.6567 48.2746 70.6567 47.915C70.8156 47.9066 70.9912 47.8982 71.1836 47.8899C71.376 47.8815 71.5642 47.8773 71.7482 47.8773C72.2918 47.8773 72.7393 47.9275 73.0906 48.0279C73.0906 48.6552 73.0822 49.3744 73.0655 50.1857C73.0487 50.997 73.0278 51.8334 73.0027 52.6949C72.986 53.5564 72.9609 54.3844 72.9275 55.179C72.9024 55.9735 72.8773 56.6761 72.8522 57.2866C72.8271 57.8972 72.8062 58.3489 72.7895 58.6416C73.2746 58.1481 73.86 57.6463 74.5459 57.1361C75.2317 56.6175 75.9384 56.1199 76.6661 55.6432C77.4021 55.1664 78.0921 54.7357 78.7362 54.3509C79.3802 53.9662 79.9029 53.6526 80.3044 53.41C80.4382 53.5522 80.5929 53.7446 80.7686 53.9871C80.9526 54.2213 81.124 54.4597 81.2829 54.7022C81.4502 54.9364 81.5757 55.1246 81.6593 55.2668C81.3666 55.4341 80.9777 55.6599 80.4926 55.9442C80.0075 56.2286 79.4889 56.5381 78.9369 56.8726C78.3849 57.2072 77.8663 57.5334 77.3812 57.8512C76.9045 58.1607 76.5281 58.4199 76.2521 58.629C76.4779 58.8047 76.8208 59.1434 77.2808 59.6453C77.7409 60.1471 78.2511 60.7409 78.8114 61.4268C79.3718 62.1042 79.928 62.8193 80.48 63.5721C81.032 64.3165 81.513 65.019 81.9228 65.6798C81.8308 65.7467 81.6301 65.847 81.3206 65.9809C81.0111 66.1063 80.6933 66.2318 80.3671 66.3572C80.0409 66.4911 79.8025 66.5789 79.652 66.6207Z" fill="white"/>
<path d="M95.3993 63.2835C95.1735 63.6014 94.8055 63.9694 94.2953 64.3876C93.7934 64.8057 93.1494 65.1696 92.3632 65.479C91.577 65.7885 90.6444 65.9432 89.5655 65.9432C87.6753 65.9432 86.1572 65.3745 85.0114 64.237C83.8655 63.0995 83.2926 61.4686 83.2926 59.3442C83.2926 57.9892 83.5728 56.8141 84.1332 55.8188C84.7019 54.8235 85.4798 54.054 86.4667 53.5104C87.4536 52.9667 88.5869 52.6949 89.8666 52.6949C91.4641 52.6949 92.7145 53.1842 93.6178 54.1628C94.5211 55.1413 95.0229 56.4544 95.1233 58.1021C95.1567 58.629 95.1526 59.1392 95.1107 59.6327C95.002 59.6243 94.7762 59.616 94.4333 59.6076C94.0987 59.5909 93.7056 59.5783 93.254 59.57C92.8023 59.5533 92.3465 59.5407 91.8865 59.5323C91.4348 59.5156 91.0459 59.5072 90.7197 59.5072C89.875 59.5072 89.0051 59.5491 88.1102 59.6327C87.2236 59.7163 86.4374 59.8125 85.7516 59.9213C85.76 60.1387 85.7809 60.352 85.8143 60.5611C85.8478 60.7702 85.8896 60.9709 85.9398 61.1633C86.1489 61.9328 86.6131 62.5391 87.3324 62.9824C88.06 63.4257 88.8588 63.6474 89.7286 63.6474C90.5483 63.6474 91.2341 63.4926 91.7861 63.1832C92.3381 62.8653 92.7772 62.5266 93.1034 62.167C93.4296 61.7989 93.6638 61.5397 93.806 61.3891C93.8813 61.4477 94.0276 61.5857 94.2451 61.8031C94.4625 62.0206 94.6842 62.2673 94.91 62.5433C95.1442 62.8193 95.3073 63.0661 95.3993 63.2835ZM85.7892 58.2401C86.3914 58.1398 87.0982 58.0519 87.9095 57.9767C88.7291 57.9014 89.6575 57.8638 90.6946 57.8638C91.2383 57.8638 91.6983 57.8721 92.0747 57.8888C92.451 57.9056 92.7187 57.9181 92.8776 57.9265C92.8776 57.6505 92.8441 57.3577 92.7772 57.0483C92.6852 56.6384 92.518 56.237 92.2754 55.8439C92.0328 55.4424 91.7025 55.112 91.2843 54.8528C90.8745 54.5851 90.3559 54.4513 89.7286 54.4513C88.6413 54.4513 87.7213 54.79 86.9685 55.4675C86.2158 56.145 85.8227 57.0692 85.7892 58.2401Z" fill="white"/>
<path d="M99.7215 54.9657C99.9724 54.5475 100.336 54.1627 100.813 53.8115C101.298 53.4602 101.842 53.18 102.444 52.9709C103.055 52.7534 103.665 52.6447 104.276 52.6447C104.669 52.6447 105.066 52.6823 105.467 52.7576C105.869 52.8245 106.183 52.9207 106.408 53.0462L105.907 55.5679C105.706 55.4842 105.447 55.3964 105.129 55.3044C104.819 55.204 104.435 55.1539 103.975 55.1539C103.23 55.1539 102.502 55.3504 101.792 55.7435C101.081 56.1283 100.524 56.6217 100.123 57.2239C100.24 57.8094 100.353 58.5245 100.462 59.3692C100.579 60.214 100.683 61.0797 100.775 61.9662C100.867 62.8528 100.943 63.6641 101.001 64.4001C101.06 65.1278 101.089 65.6756 101.089 66.0436C100.729 66.0771 100.29 66.098 99.7717 66.1063C99.2531 66.1147 98.7764 66.1147 98.3415 66.1063C98.3415 64.8016 98.2913 63.3964 98.1909 61.8909C98.0989 60.3771 97.9526 58.8716 97.7518 57.3745C97.5511 55.869 97.296 54.4848 96.9865 53.2218C97.2124 53.1549 97.4758 53.088 97.7769 53.0211C98.0864 52.9542 98.3707 52.8956 98.63 52.8454C98.8893 52.7953 99.0649 52.766 99.157 52.7576C99.2573 53.042 99.366 53.41 99.4831 53.8617C99.6086 54.3133 99.6881 54.6813 99.7215 54.9657Z" fill="white"/>
<path d="M112.466 72.7054C111.295 72.7054 110.253 72.5214 109.342 72.1534C108.43 71.7854 107.719 71.4216 107.209 71.0619C107.268 70.903 107.368 70.6855 107.51 70.4095C107.652 70.1419 107.803 69.8742 107.962 69.6066C108.121 69.339 108.254 69.134 108.363 68.9919C108.589 69.1591 108.924 69.3557 109.367 69.5815C109.81 69.8157 110.308 70.0206 110.86 70.1962C111.42 70.3719 111.989 70.4597 112.566 70.4597C113.31 70.4597 113.942 70.2632 114.46 69.8701C114.979 69.4853 115.397 68.9584 115.715 68.2893C116.033 67.6285 116.263 66.88 116.405 66.0436C116.556 65.2072 116.635 64.3457 116.643 63.4592C116.501 63.777 116.275 64.099 115.966 64.4252C115.665 64.7514 115.263 65.0274 114.762 65.2532C114.26 65.4707 113.645 65.5794 112.917 65.5794C111.721 65.5794 110.797 65.2323 110.145 64.5381C109.492 63.8355 109.036 62.8821 108.777 61.6777C108.526 60.4649 108.401 59.0932 108.401 57.5627C108.401 56.9772 108.413 56.3708 108.438 55.7435C108.464 55.1162 108.493 54.468 108.526 53.7989C108.635 53.7738 108.794 53.7571 109.003 53.7487C109.212 53.7404 109.434 53.7362 109.668 53.7362C109.936 53.7362 110.199 53.7446 110.458 53.7613C110.718 53.7696 110.893 53.7864 110.985 53.8115C110.969 53.9118 110.939 54.1544 110.897 54.5391C110.864 54.9155 110.831 55.3713 110.797 55.9066C110.772 56.4335 110.759 56.9814 110.759 57.5501C110.759 58.2192 110.789 58.8925 110.847 59.57C110.906 60.2391 111.019 60.8538 111.186 61.4142C111.362 61.9746 111.617 62.4262 111.951 62.7691C112.286 63.1037 112.733 63.271 113.294 63.271C114.23 63.271 114.975 62.8695 115.527 62.0666C116.079 61.2553 116.409 60.0885 116.518 58.5663C116.551 58.1732 116.576 57.7341 116.593 57.249C116.618 56.7639 116.639 56.2914 116.656 55.8313C116.673 55.3713 116.681 54.9824 116.681 54.6646C116.689 54.3384 116.689 54.1418 116.681 54.0749C116.957 54.0415 117.237 54.0247 117.522 54.0247C118.032 54.0247 118.496 54.0749 118.914 54.1753C118.948 54.8779 118.964 55.7142 118.964 56.6844C118.964 57.8888 118.935 59.2689 118.877 60.8246C118.818 62.3719 118.751 63.8899 118.676 65.3787C118.601 66.7922 118.325 68.0509 117.848 69.1549C117.379 70.259 116.698 71.1246 115.803 71.7519C114.916 72.3876 113.804 72.7054 112.466 72.7054Z" fill="white"/>
<path d="M23.5854 28.4439C24.3294 31.2208 22.6815 34.0751 19.9046 34.8192C19.1605 32.0423 20.8085 29.188 23.5854 28.4439Z" fill="white"/>
<path d="M6.9952 64.5561C6.25114 61.7792 7.89907 58.9249 10.676 58.1808C11.42 60.9577 9.7721 63.812 6.9952 64.5561Z" fill="white"/>
<path d="M23.5854 35.2396C24.3294 38.0165 22.6815 40.8708 19.9046 41.6148C19.1605 38.8379 20.8085 35.9836 23.5854 35.2396Z" fill="white"/>
<path d="M6.9952 57.7604C6.25114 54.9835 7.89907 52.1292 10.676 51.3852C11.42 54.1621 9.7721 57.0164 6.9952 57.7604Z" fill="white"/>
<path d="M23.5854 42.0351C24.3294 44.812 22.6815 47.6663 19.9046 48.4104C19.1605 45.6335 20.8085 42.7792 23.5854 42.0351Z" fill="white"/>
<path d="M6.9952 50.9649C6.25114 48.188 7.89907 45.3337 10.676 44.5896C11.42 47.3665 9.7721 50.2208 6.9952 50.9649Z" fill="white"/>
<path d="M23.5854 48.8309C24.3294 51.6078 22.6815 54.4621 19.9046 55.2061C19.1605 52.4292 20.8085 49.5749 23.5854 48.8309Z" fill="white"/>
<path d="M6.9952 44.1691C6.25114 41.3922 7.89907 38.5379 10.676 37.7939C11.42 40.5708 9.7721 43.4251 6.9952 44.1691Z" fill="white"/>
<path d="M5.75 25.4398V24.951C5.75 22.6564 7.61016 20.7963 9.90477 20.7963V20.7963C11.0453 20.7963 14.7404 19.3333 13.5707 13.9531C12.398 8.55846 8.52407 2.71362 13.8305 1.17119C14.2988 1.03506 14.7938 1 15.2815 1V1" stroke="white" stroke-width="2"/>
<path d="M24.8301 67.5602L24.8301 68.049C24.8301 70.3436 22.9699 72.2037 20.6753 72.2037V72.2037C19.5348 72.2037 15.8397 73.6667 17.0093 79.0469C18.1821 84.4415 22.056 90.2864 16.7496 91.8288C16.2813 91.9649 15.7862 92 15.2985 92V92" stroke="white" stroke-width="2"/>
<path d="M15.2817 1V1C15.7568 1 16.2392 1.03512 16.6945 1.17087C21.8664 2.71282 18.0914 8.55809 16.9486 13.9531C15.809 19.3333 19.4093 20.7963 20.5206 20.7963V20.7963C22.7564 20.7963 24.5688 22.6087 24.5688 24.8445V25.4398L24.5688 58.3708" stroke="white" stroke-width="2"/>
<path d="M15.2989 92V92C14.8237 92 14.3414 91.9649 13.8861 91.8291C8.71414 90.2872 12.4892 84.4419 13.6319 79.0469C14.7716 73.6667 11.1712 72.2037 10.06 72.2037V72.2037C7.82418 72.2037 6.01172 70.3913 6.01172 68.1555L6.01172 67.5602L6.01172 34.6292" stroke="white" stroke-width="2"/>
<path d="M25.5525 28.4439C28.3294 29.188 29.9774 32.0423 29.2333 34.8192C26.4564 34.0751 24.8085 31.2208 25.5525 28.4439Z" fill="white"/>
<path d="M5.02802 64.5561C2.25112 63.812 0.603186 60.9577 1.34725 58.1808C4.12416 58.9249 5.77209 61.7792 5.02802 64.5561Z" fill="white"/>
<path d="M25.5525 35.2395C28.3294 35.9836 29.9774 38.8379 29.2333 41.6148C26.4564 40.8707 24.8085 38.0164 25.5525 35.2395Z" fill="white"/>
<path d="M5.02802 57.7605C2.25112 57.0164 0.603186 54.1621 1.34725 51.3852C4.12416 52.1293 5.77209 54.9836 5.02802 57.7605Z" fill="white"/>
<path d="M25.5525 42.0352C28.3294 42.7793 29.9774 45.6336 29.2333 48.4105C26.4564 47.6664 24.8085 44.8121 25.5525 42.0352Z" fill="white"/>
<path d="M5.02802 50.9648C2.25112 50.2207 0.603186 47.3664 1.34725 44.5895C4.12416 45.3336 5.77209 48.1879 5.02802 50.9648Z" fill="white"/>
<path d="M25.5525 48.8308C28.3294 49.5749 29.9774 52.4292 29.2333 55.2061C26.4564 54.4621 24.8085 51.6077 25.5525 48.8308Z" fill="white"/>
<path d="M5.02802 44.1692C2.25112 43.4251 0.603186 40.5708 1.34725 37.7939C4.12416 38.5379 5.77209 41.3923 5.02802 44.1692Z" fill="white"/>
<path d="M24.5902 55.8878C26.6231 57.9207 26.6231 61.2165 24.5902 63.2494C22.5574 61.2165 22.5574 57.9207 24.5902 55.8878Z" fill="white"/>
<path d="M5.98985 37.1122C3.95702 35.0793 3.95702 31.7835 5.98985 29.7506C8.02268 31.7835 8.02268 35.0793 5.98985 37.1122Z" fill="white"/>
</svg>
