<svg width="245" height="190" viewBox="0 0 245 190" fill="none" xmlns="http://www.w3.org/2000/svg">
<g id="logo">
<g id="Savka Bakery">
<path d="M91.6232 83.6661C89.4701 83.6661 87.4634 83.2613 85.6031 82.4518C83.7429 81.6422 82.1323 80.6432 80.7716 79.4547C79.428 78.2489 78.4376 77.0604 77.8003 75.8891C77.9381 75.6996 78.2395 75.3982 78.7046 74.9848C79.1697 74.5714 79.6606 74.158 80.1773 73.7446C80.6941 73.314 81.1161 73.0039 81.4433 72.8145C81.8223 73.3657 82.3132 74.0116 82.9161 74.7523C83.5362 75.4929 84.2768 76.2164 85.1381 76.9226C85.9993 77.6288 86.9725 78.2231 88.0577 78.7054C89.1601 79.1704 90.3658 79.403 91.6749 79.403C93.3285 79.403 94.6634 79.0929 95.6797 78.4728C96.6959 77.8355 97.4366 77.0518 97.9017 76.1216C98.3668 75.1743 98.5993 74.2355 98.5993 73.3054C98.5993 72.1341 98.1945 71.1437 97.3849 70.3341C96.5926 69.5073 95.5247 68.7925 94.1811 68.1896C92.8548 67.5867 91.3907 67.0442 89.7888 66.5619C87.7563 65.9245 85.9649 65.2011 84.4146 64.3915C82.8644 63.582 81.65 62.5743 80.7716 61.3686C79.8931 60.1628 79.4539 58.647 79.4539 56.8212C79.4539 54.9782 79.962 53.4451 80.9783 52.2222C81.9945 50.982 83.3381 50.0518 85.0089 49.4318C86.6969 48.8117 88.5314 48.5016 90.5122 48.5016C92.3208 48.5016 94.0089 48.7428 95.5763 49.2251C97.161 49.7074 98.539 50.3102 99.7103 51.0337C100.882 51.7399 101.751 52.4633 102.32 53.204C102.165 53.4624 101.915 53.8155 101.571 54.2633C101.226 54.6939 100.864 55.1246 100.485 55.5552C100.106 55.9858 99.7878 56.3217 99.5294 56.5628C99.0644 56.0461 98.4012 55.4777 97.54 54.8576C96.6787 54.2203 95.628 53.6777 94.3878 53.2298C93.1649 52.7648 91.7783 52.5322 90.228 52.5322C88.5055 52.5322 87.1275 52.9456 86.0941 53.7724C85.0606 54.582 84.5438 55.6758 84.5438 57.0537C84.5438 58.0528 84.8453 58.8624 85.4481 59.4824C86.0682 60.1025 86.8347 60.6107 87.7476 61.0068C88.6778 61.3858 89.6165 61.7131 90.5639 61.9887C92.2692 62.5226 93.9055 63.0738 95.473 63.6422C97.0577 64.2107 98.4701 64.891 99.7103 65.6834C100.968 66.4585 101.958 67.4317 102.682 68.603C103.405 69.7571 103.767 71.1781 103.767 72.8661C103.767 74.7437 103.284 76.5092 102.32 78.1628C101.355 79.7991 99.9601 81.1255 98.1342 82.1417C96.3256 83.158 94.1553 83.6661 91.6232 83.6661Z" fill="#ECEBE4"/>
<path d="M120.441 83.8987C118.288 83.8987 116.333 83.6145 114.576 83.046C112.836 82.4604 111.449 81.5302 110.416 80.2556C109.382 78.9637 108.866 77.2499 108.866 75.114C108.866 73.0642 109.443 71.3762 110.597 70.0499C111.751 68.7064 113.31 67.7073 115.273 67.0528C117.254 66.3982 119.467 66.0709 121.913 66.0709C123.033 66.0709 124.135 66.1571 125.221 66.3293C126.306 66.5016 127.244 66.691 128.037 66.8977C128.846 67.1044 129.389 67.2681 129.665 67.3886C129.613 66.8202 129.51 66.2432 129.355 65.6576C129.199 65.0719 128.984 64.5466 128.709 64.0815C128.054 62.9274 127.098 61.9801 125.841 61.2394C124.6 60.4815 123.042 60.1025 121.164 60.1025C119.166 60.1025 117.478 60.5332 116.1 61.3944C114.739 62.2556 113.714 63.2633 113.025 64.4174L108.84 61.6528C109.959 59.982 111.622 58.604 113.826 57.5188C116.048 56.4337 118.555 55.8911 121.345 55.8911C124.239 55.8911 126.633 56.4509 128.528 57.5705C130.422 58.6729 131.809 60.1198 132.688 61.9111C133.135 62.8241 133.488 63.8231 133.747 64.9083C134.005 65.9934 134.16 67.337 134.212 68.9389C134.246 70.6269 134.281 72.0738 134.315 73.2795C134.367 74.4681 134.419 75.4843 134.47 76.3283C134.556 77.448 134.729 78.1714 134.987 78.4987C135.245 78.8259 135.616 78.9896 136.098 78.9896C136.649 78.9896 137.106 78.757 137.467 78.292C137.846 77.8097 138.07 77.1379 138.139 76.2767L140.62 79.0154C140.516 80.4623 140.008 81.5647 139.095 82.3226C138.182 83.0805 137.114 83.4594 135.891 83.4594C134.444 83.4594 133.265 83.0633 132.352 82.2709C131.456 81.4613 130.956 80.5915 130.853 79.6614C130.491 80.2987 129.82 80.9446 128.838 81.5991C127.856 82.2537 126.642 82.8049 125.195 83.2527C123.765 83.6833 122.18 83.8987 120.441 83.8987ZM121.371 79.8422C123.042 79.8422 124.652 79.4719 126.202 78.7312C127.753 77.9905 128.967 77.1035 129.845 76.07C129.828 75.0193 129.828 74.0719 129.845 73.2279C129.863 72.3839 129.888 71.6087 129.923 70.9025C129.423 70.7303 128.467 70.5063 127.055 70.2307C125.643 69.9379 124.049 69.7915 122.275 69.7915C119.984 69.7915 118.038 70.2394 116.436 71.1351C114.834 72.0307 114.033 73.2795 114.033 74.8815C114.033 76.8279 114.713 78.1456 116.074 78.8346C117.452 79.5063 119.218 79.8422 121.371 79.8422Z" fill="#ECEBE4"/>
<path d="M158.282 55.1676C159.453 55.3915 160.513 55.6499 161.46 55.9427C162.407 56.2183 162.967 56.3906 163.14 56.4595C162.847 57.6308 162.425 59.0863 161.874 60.826C161.322 62.5657 160.694 64.4604 159.987 66.5102C159.298 68.5427 158.566 70.6011 157.791 72.6853C157.033 74.7695 156.284 76.7504 155.543 78.6279C154.82 80.5054 154.148 82.1331 153.528 83.5111C152.96 83.6145 152.202 83.6661 151.254 83.6661C150.824 83.6661 150.41 83.6489 150.014 83.6145C149.635 83.58 149.308 83.5456 149.032 83.5111C147.723 80.8068 146.457 77.8786 145.234 74.7264C144.029 71.5743 142.892 68.4135 141.824 65.2442C140.773 62.0576 139.834 59.0777 139.008 56.3045C139.318 56.2183 139.757 56.1064 140.325 55.9686C140.911 55.8308 141.505 55.6844 142.108 55.5293C142.711 55.3743 143.21 55.2451 143.607 55.1418C143.865 56.227 144.235 57.5447 144.718 59.0949C145.2 60.6279 145.734 62.2729 146.319 64.0298C146.905 65.7695 147.499 67.492 148.102 69.1973C148.722 70.9025 149.308 72.47 149.859 73.8996C150.41 75.3293 150.875 76.492 151.254 77.3877C151.788 76.0097 152.383 74.3905 153.037 72.5303C153.709 70.6528 154.381 68.6805 155.052 66.6135C155.724 64.5466 156.344 62.5226 156.913 60.5418C157.481 58.5437 157.938 56.7523 158.282 55.1676Z" fill="#ECEBE4"/>
<path d="M187.706 84.4671C187.327 83.8125 186.802 82.9944 186.13 82.0125C185.458 81.0135 184.709 79.9456 183.882 78.8087C183.055 77.6719 182.211 76.5609 181.35 75.4757C180.489 74.3905 179.679 73.426 178.921 72.5819C178.181 71.7379 177.561 71.1178 177.061 70.7217C176.734 70.98 176.303 71.3245 175.769 71.7551C175.235 72.1685 174.736 72.5733 174.271 72.9695C173.805 73.3657 173.504 73.6327 173.366 73.7705C173.349 74.5111 173.315 75.3982 173.263 76.4317C173.228 77.448 173.185 78.4728 173.134 79.5063C173.082 80.5398 173.03 81.47 172.979 82.2968C172.927 83.1235 172.893 83.7178 172.875 84.0795C172.049 84.1829 171.239 84.2345 170.447 84.2345C169.93 84.2345 169.43 84.2173 168.948 84.1829C168.483 84.1484 168.061 84.0967 167.682 84.0278C167.716 83.6317 167.768 82.736 167.837 81.3408C167.906 79.9456 167.983 78.2231 168.07 76.1733C168.156 74.1236 168.25 71.8929 168.354 69.4815C168.457 67.07 168.552 64.6413 168.638 62.1954C168.741 59.7494 168.836 57.4327 168.922 55.2451C169.008 53.0404 169.069 51.1284 169.103 49.5093C169.155 47.8729 169.181 46.6844 169.181 45.9437C169.508 45.9265 169.87 45.9093 170.266 45.892C170.662 45.8748 171.05 45.8662 171.428 45.8662C172.548 45.8662 173.47 45.9696 174.193 46.1763C174.193 47.4681 174.176 48.9495 174.141 50.6203C174.107 52.2911 174.064 54.0136 174.012 55.7877C173.978 57.5619 173.926 59.2671 173.857 60.9035C173.805 62.5399 173.754 63.9867 173.702 65.2442C173.65 66.5016 173.607 67.4317 173.573 68.0346C174.572 67.0183 175.778 65.9848 177.19 64.9341C178.603 63.8662 180.058 62.8413 181.557 61.8595C183.072 60.8777 184.493 59.9906 185.82 59.1982C187.146 58.4059 188.223 57.76 189.049 57.2604C189.325 57.5533 189.644 57.9494 190.005 58.449C190.384 58.9313 190.738 59.4222 191.065 59.9217C191.409 60.404 191.668 60.7915 191.84 61.0844C191.237 61.4289 190.436 61.8939 189.437 62.4796C188.438 63.0652 187.37 63.7025 186.233 64.3915C185.096 65.0805 184.028 65.7523 183.029 66.4068C182.048 67.0442 181.272 67.5781 180.704 68.0087C181.169 68.3705 181.875 69.0681 182.823 70.1016C183.77 71.1351 184.821 72.358 185.975 73.7705C187.129 75.1657 188.274 76.6384 189.411 78.1886C190.548 79.7216 191.538 81.1685 192.382 82.5293C192.193 82.6671 191.78 82.8738 191.142 83.1494C190.505 83.4078 189.85 83.6661 189.179 83.9245C188.507 84.2001 188.016 84.381 187.706 84.4671Z" fill="#ECEBE4"/>
<path d="M206.279 83.8987C204.126 83.8987 202.171 83.6145 200.414 83.046C198.674 82.4604 197.288 81.5302 196.254 80.2556C195.221 78.9637 194.704 77.2499 194.704 75.114C194.704 73.0642 195.281 71.3762 196.435 70.0499C197.589 68.7064 199.148 67.7073 201.111 67.0528C203.092 66.3982 205.306 66.0709 207.752 66.0709C208.871 66.0709 209.974 66.1571 211.059 66.3293C212.144 66.5016 213.083 66.691 213.875 66.8977C214.685 67.1044 215.227 67.2681 215.503 67.3886C215.451 66.8202 215.348 66.2432 215.193 65.6576C215.038 65.0719 214.822 64.5466 214.547 64.0815C213.892 62.9274 212.936 61.9801 211.679 61.2394C210.439 60.4815 208.88 60.1025 207.002 60.1025C205.004 60.1025 203.316 60.5332 201.938 61.3944C200.577 62.2556 199.553 63.2633 198.864 64.4174L194.678 61.6528C195.798 59.982 197.46 58.604 199.665 57.5188C201.887 56.4337 204.393 55.8911 207.183 55.8911C210.077 55.8911 212.471 56.4509 214.366 57.5705C216.261 58.6729 217.647 60.1198 218.526 61.9111C218.974 62.8241 219.327 63.8231 219.585 64.9083C219.843 65.9934 219.998 67.337 220.05 68.9389C220.085 70.6269 220.119 72.0738 220.153 73.2795C220.205 74.4681 220.257 75.4843 220.309 76.3283C220.395 77.448 220.567 78.1714 220.825 78.4987C221.084 78.8259 221.454 78.9896 221.936 78.9896C222.487 78.9896 222.944 78.757 223.306 78.292C223.685 77.8097 223.909 77.1379 223.977 76.2767L226.458 79.0154C226.354 80.4623 225.846 81.5647 224.933 82.3226C224.02 83.0805 222.953 83.4594 221.73 83.4594C220.283 83.4594 219.103 83.0633 218.19 82.2709C217.294 81.4613 216.795 80.5915 216.691 79.6614C216.33 80.2987 215.658 80.9446 214.676 81.5991C213.694 82.2537 212.48 82.8049 211.033 83.2527C209.603 83.6833 208.019 83.8987 206.279 83.8987ZM207.209 79.8422C208.88 79.8422 210.49 79.4719 212.041 78.7312C213.591 77.9905 214.805 77.1035 215.684 76.07C215.666 75.0193 215.666 74.0719 215.684 73.2279C215.701 72.3839 215.727 71.6087 215.761 70.9025C215.262 70.7303 214.306 70.5063 212.893 70.2307C211.481 69.9379 209.887 69.7915 208.113 69.7915C205.822 69.7915 203.876 70.2394 202.274 71.1351C200.672 72.0307 199.871 73.2795 199.871 74.8815C199.871 76.8279 200.552 78.1456 201.912 78.8346C203.29 79.5063 205.056 79.8422 207.209 79.8422Z" fill="#ECEBE4"/>
<path d="M80.9008 134.566C80.9008 133.911 80.9094 132.843 80.9266 131.362C80.9438 129.88 80.9611 128.158 80.9783 126.194C81.0127 124.213 81.0472 122.138 81.0816 119.967C81.1161 117.78 81.1419 115.644 81.1591 113.56C81.1936 111.458 81.2194 109.546 81.2366 107.824C81.2711 106.084 81.2969 104.68 81.3142 103.612C81.3314 102.527 81.34 101.933 81.34 101.83C82.4596 101.726 83.9409 101.614 85.784 101.494C87.6443 101.356 89.6165 101.287 91.7007 101.287C93.561 101.287 95.2232 101.554 96.6873 102.088C98.1514 102.605 99.3055 103.432 100.15 104.568C100.994 105.705 101.416 107.195 101.416 109.038C101.416 110.313 101.131 111.536 100.563 112.707C99.9945 113.861 99.2711 114.843 98.3926 115.653C97.5313 116.445 96.6357 116.945 95.7055 117.151C95.8605 117.134 96.0586 117.134 96.2998 117.151C97.7811 117.203 99.1246 117.539 100.33 118.159C101.553 118.762 102.527 119.606 103.25 120.691C103.973 121.776 104.335 123.042 104.335 124.489C104.335 126.677 103.87 128.459 102.94 129.837C102.01 131.215 100.709 132.275 99.0385 133.015C97.3849 133.756 95.4644 134.264 93.2768 134.54C91.0893 134.815 88.7381 134.953 86.2232 134.953C85.2414 134.953 84.2854 134.927 83.3553 134.876C82.4252 134.807 81.607 134.703 80.9008 134.566ZM86.2491 115.756C88.1438 115.739 89.6079 115.67 90.6414 115.549C91.6749 115.429 92.5361 115.188 93.2251 114.826C94.2242 114.447 95.0854 113.792 95.8089 112.862C96.5323 111.915 96.894 110.856 96.894 109.684C96.894 107.996 96.3859 106.808 95.3696 106.119C94.3534 105.43 92.9926 105.085 91.2873 105.085C90.34 105.085 89.384 105.137 88.4194 105.24C87.472 105.344 86.7228 105.43 86.1716 105.499L86.2491 115.756ZM86.3008 130.122C86.4213 130.122 86.585 130.122 86.7917 130.122C87.0156 130.122 87.2567 130.122 87.5151 130.122C89.5476 130.122 91.4768 129.984 93.3026 129.708C95.1285 129.433 96.6184 128.881 97.7725 128.055C98.9438 127.211 99.5294 125.97 99.5294 124.334C99.5294 123.145 99.1591 122.224 98.4184 121.569C97.6778 120.898 96.6873 120.424 95.4471 120.148C94.207 119.873 92.8204 119.735 91.2873 119.735C90.9945 119.735 90.5208 119.744 89.8663 119.761C89.229 119.778 88.5744 119.804 87.9027 119.838C87.2309 119.856 86.7055 119.881 86.3266 119.916L86.3008 130.122Z" fill="#ECEBE4"/>
<path d="M120.996 135.573C118.843 135.573 116.888 135.289 115.131 134.721C113.391 134.135 112.004 133.205 110.971 131.93C109.937 130.638 109.421 128.924 109.421 126.789C109.421 124.739 109.998 123.051 111.152 121.724C112.306 120.381 113.865 119.382 115.828 118.727C117.809 118.073 120.023 117.745 122.468 117.745C123.588 117.745 124.69 117.832 125.776 118.004C126.861 118.176 127.8 118.366 128.592 118.572C129.401 118.779 129.944 118.943 130.22 119.063C130.168 118.495 130.065 117.918 129.91 117.332C129.755 116.746 129.539 116.221 129.264 115.756C128.609 114.602 127.653 113.655 126.396 112.914C125.156 112.156 123.597 111.777 121.719 111.777C119.721 111.777 118.033 112.208 116.655 113.069C115.294 113.93 114.269 114.938 113.58 116.092L109.395 113.327C110.514 111.656 112.177 110.279 114.381 109.193C116.603 108.108 119.11 107.566 121.9 107.566C124.794 107.566 127.188 108.125 129.083 109.245C130.978 110.347 132.364 111.794 133.243 113.586C133.69 114.499 134.044 115.498 134.302 116.583C134.56 117.668 134.715 119.011 134.767 120.613C134.801 122.301 134.836 123.748 134.87 124.954C134.922 126.143 134.974 127.159 135.025 128.003C135.112 129.122 135.284 129.846 135.542 130.173C135.8 130.5 136.171 130.664 136.653 130.664C137.204 130.664 137.661 130.432 138.022 129.966C138.401 129.484 138.625 128.812 138.694 127.951L141.175 130.69C141.071 132.137 140.563 133.239 139.65 133.997C138.737 134.755 137.669 135.134 136.446 135.134C135 135.134 133.82 134.738 132.907 133.945C132.011 133.136 131.512 132.266 131.408 131.336C131.046 131.973 130.375 132.619 129.393 133.274C128.411 133.928 127.197 134.479 125.75 134.927C124.32 135.358 122.735 135.573 120.996 135.573ZM121.926 131.517C123.597 131.517 125.207 131.146 126.757 130.406C128.308 129.665 129.522 128.778 130.401 127.744C130.383 126.694 130.383 125.746 130.401 124.902C130.418 124.058 130.444 123.283 130.478 122.577C129.979 122.405 129.023 122.181 127.61 121.905C126.198 121.612 124.604 121.466 122.83 121.466C120.539 121.466 118.593 121.914 116.991 122.81C115.389 123.705 114.588 124.954 114.588 126.556C114.588 128.502 115.268 129.82 116.629 130.509C118.007 131.181 119.773 131.517 121.926 131.517Z" fill="#ECEBE4"/>
<path d="M164.039 136.142C163.66 135.487 163.134 134.669 162.463 133.687C161.791 132.688 161.041 131.62 160.215 130.483C159.388 129.346 158.544 128.235 157.683 127.15C156.821 126.065 156.012 125.1 155.254 124.256C154.513 123.412 153.893 122.792 153.394 122.396C153.066 122.655 152.636 122.999 152.102 123.43C151.568 123.843 151.068 124.248 150.603 124.644C150.138 125.04 149.837 125.307 149.699 125.445C149.682 126.186 149.647 127.073 149.596 128.106C149.561 129.122 149.518 130.147 149.466 131.181C149.415 132.214 149.363 133.144 149.311 133.971C149.26 134.798 149.225 135.392 149.208 135.754C148.381 135.857 147.572 135.909 146.779 135.909C146.263 135.909 145.763 135.892 145.281 135.857C144.816 135.823 144.394 135.771 144.015 135.702C144.049 135.306 144.101 134.411 144.17 133.015C144.239 131.62 144.316 129.898 144.402 127.848C144.488 125.798 144.583 123.567 144.686 121.156C144.79 118.745 144.885 116.316 144.971 113.87C145.074 111.424 145.169 109.107 145.255 106.92C145.341 104.715 145.401 102.803 145.436 101.184C145.487 99.5474 145.513 98.3589 145.513 97.6182C145.841 97.601 146.202 97.5838 146.598 97.5666C146.995 97.5493 147.382 97.5407 147.761 97.5407C148.881 97.5407 149.802 97.6441 150.526 97.8508C150.526 99.1426 150.508 100.624 150.474 102.295C150.44 103.966 150.397 105.688 150.345 107.462C150.31 109.236 150.259 110.942 150.19 112.578C150.138 114.214 150.086 115.661 150.035 116.919C149.983 118.176 149.94 119.106 149.906 119.709C150.905 118.693 152.11 117.659 153.523 116.609C154.935 115.541 156.391 114.516 157.889 113.534C159.405 112.552 160.826 111.665 162.152 110.873C163.479 110.08 164.555 109.434 165.382 108.935C165.658 109.228 165.976 109.624 166.338 110.123C166.717 110.606 167.07 111.097 167.397 111.596C167.742 112.078 168 112.466 168.173 112.759C167.57 113.103 166.769 113.568 165.77 114.154C164.771 114.74 163.703 115.377 162.566 116.066C161.429 116.755 160.361 117.427 159.362 118.081C158.38 118.719 157.605 119.253 157.037 119.683C157.502 120.045 158.208 120.743 159.155 121.776C160.103 122.81 161.153 124.033 162.308 125.445C163.462 126.84 164.607 128.313 165.744 129.863C166.881 131.396 167.871 132.843 168.715 134.204C168.526 134.342 168.112 134.548 167.475 134.824C166.838 135.082 166.183 135.341 165.511 135.599C164.84 135.875 164.349 136.055 164.039 136.142Z" fill="#ECEBE4"/>
<path d="M196.469 129.269C196.004 129.923 195.246 130.681 194.196 131.543C193.162 132.404 191.836 133.153 190.217 133.79C188.597 134.428 186.677 134.746 184.455 134.746C180.562 134.746 177.436 133.575 175.076 131.233C172.716 128.89 171.536 125.531 171.536 121.156C171.536 118.366 172.113 115.945 173.267 113.896C174.439 111.846 176.041 110.261 178.073 109.142C180.106 108.022 182.44 107.462 185.075 107.462C188.365 107.462 190.94 108.47 192.8 110.485C194.661 112.501 195.694 115.205 195.901 118.598C195.97 119.683 195.961 120.734 195.875 121.75C195.651 121.733 195.186 121.716 194.48 121.699C193.791 121.664 192.981 121.638 192.051 121.621C191.121 121.587 190.182 121.561 189.235 121.544C188.305 121.509 187.504 121.492 186.832 121.492C185.092 121.492 183.301 121.578 181.458 121.75C179.632 121.922 178.013 122.121 176.6 122.345C176.618 122.792 176.661 123.232 176.73 123.662C176.798 124.093 176.885 124.506 176.988 124.902C177.419 126.487 178.375 127.736 179.856 128.649C181.354 129.562 182.999 130.018 184.791 130.018C186.479 130.018 187.891 129.7 189.028 129.062C190.165 128.408 191.069 127.71 191.741 126.969C192.413 126.211 192.895 125.678 193.188 125.367C193.343 125.488 193.644 125.772 194.092 126.22C194.54 126.668 194.996 127.176 195.462 127.744C195.944 128.313 196.28 128.821 196.469 129.269ZM176.678 118.882C177.918 118.676 179.374 118.495 181.044 118.34C182.732 118.185 184.644 118.107 186.78 118.107C187.9 118.107 188.847 118.124 189.622 118.159C190.397 118.193 190.949 118.219 191.276 118.236C191.276 117.668 191.207 117.065 191.069 116.428C190.88 115.584 190.535 114.757 190.036 113.947C189.536 113.121 188.856 112.44 187.995 111.906C187.151 111.355 186.083 111.079 184.791 111.079C182.552 111.079 180.657 111.777 179.107 113.172C177.556 114.567 176.747 116.471 176.678 118.882Z" fill="#ECEBE4"/>
<path d="M205.371 112.139C205.887 111.278 206.637 110.485 207.618 109.762C208.617 109.038 209.737 108.461 210.977 108.031C212.235 107.583 213.492 107.359 214.749 107.359C215.559 107.359 216.377 107.436 217.204 107.591C218.031 107.729 218.677 107.927 219.142 108.186L218.108 113.379C217.695 113.207 217.161 113.026 216.506 112.836C215.869 112.63 215.077 112.526 214.129 112.526C212.596 112.526 211.098 112.931 209.634 113.741C208.17 114.533 207.024 115.549 206.197 116.789C206.438 117.995 206.671 119.468 206.895 121.208C207.136 122.947 207.351 124.73 207.541 126.556C207.73 128.382 207.885 130.053 208.006 131.568C208.127 133.067 208.187 134.195 208.187 134.953C207.446 135.022 206.542 135.065 205.474 135.082C204.406 135.099 203.424 135.099 202.528 135.082C202.528 132.395 202.425 129.501 202.218 126.401C202.029 123.283 201.727 120.183 201.314 117.1C200.901 113.999 200.375 111.148 199.738 108.547C200.203 108.41 200.746 108.272 201.366 108.134C202.003 107.996 202.589 107.876 203.123 107.772C203.657 107.669 204.018 107.609 204.208 107.591C204.415 108.177 204.638 108.935 204.88 109.865C205.138 110.795 205.302 111.553 205.371 112.139Z" fill="#ECEBE4"/>
<path d="M231.616 148.673C229.205 148.673 227.06 148.294 225.183 147.536C223.305 146.778 221.841 146.029 220.791 145.288C220.911 144.961 221.118 144.513 221.411 143.944C221.703 143.393 222.014 142.842 222.341 142.291C222.668 141.74 222.944 141.318 223.168 141.025C223.633 141.369 224.322 141.774 225.235 142.239C226.147 142.721 227.172 143.143 228.309 143.505C229.463 143.867 230.635 144.048 231.823 144.048C233.356 144.048 234.657 143.643 235.724 142.833C236.792 142.041 237.654 140.956 238.308 139.578C238.963 138.217 239.436 136.676 239.729 134.953C240.039 133.231 240.203 131.456 240.22 129.631C239.927 130.285 239.462 130.948 238.825 131.62C238.205 132.292 237.378 132.86 236.345 133.325C235.311 133.773 234.045 133.997 232.546 133.997C230.083 133.997 228.18 133.282 226.836 131.853C225.493 130.406 224.554 128.442 224.02 125.962C223.503 123.464 223.245 120.639 223.245 117.487C223.245 116.281 223.271 115.033 223.323 113.741C223.374 112.449 223.435 111.114 223.503 109.736C223.727 109.684 224.055 109.65 224.485 109.633C224.916 109.615 225.372 109.607 225.855 109.607C226.406 109.607 226.948 109.624 227.482 109.658C228.016 109.676 228.378 109.71 228.568 109.762C228.533 109.968 228.473 110.468 228.387 111.26C228.318 112.035 228.249 112.974 228.18 114.077C228.128 115.162 228.102 116.29 228.102 117.461C228.102 118.839 228.163 120.226 228.283 121.621C228.404 122.999 228.636 124.265 228.981 125.419C229.343 126.573 229.868 127.503 230.557 128.21C231.246 128.899 232.168 129.243 233.322 129.243C235.251 129.243 236.784 128.416 237.921 126.763C239.057 125.092 239.738 122.689 239.962 119.554C240.031 118.745 240.082 117.84 240.117 116.841C240.168 115.842 240.212 114.869 240.246 113.922C240.28 112.974 240.298 112.173 240.298 111.519C240.315 110.847 240.315 110.442 240.298 110.304C240.866 110.235 241.443 110.201 242.029 110.201C243.079 110.201 244.035 110.304 244.897 110.511C244.966 111.958 245 113.68 245 115.678C245 118.159 244.94 121.001 244.819 124.205C244.699 127.391 244.561 130.518 244.406 133.584C244.251 136.495 243.682 139.087 242.701 141.361C241.736 143.634 240.332 145.417 238.489 146.709C236.663 148.018 234.372 148.673 231.616 148.673Z" fill="#ECEBE4"/>
</g>
<g id="Group 5">
<path id="Rectangle 14" d="M48.5726 57.5191C50.1049 63.238 46.7111 69.1162 40.9923 70.6486C39.4599 64.9298 42.8537 59.0515 48.5726 57.5191Z" fill="#ECEBE4"/>
<path id="Rectangle 22" d="M14.4064 131.89C12.8741 126.171 16.2679 120.293 21.9867 118.76C23.5191 124.479 20.1253 130.357 14.4064 131.89Z" fill="#ECEBE4"/>
<path id="Rectangle 15" d="M48.5726 71.5142C50.1049 77.2331 46.7111 83.1114 40.9923 84.6437C39.4599 78.9249 42.8537 73.0466 48.5726 71.5142Z" fill="#ECEBE4"/>
<path id="Rectangle 23" d="M14.4064 117.895C12.8741 112.176 16.2679 106.298 21.9867 104.765C23.5191 110.484 20.1253 116.362 14.4064 117.895Z" fill="#ECEBE4"/>
<path id="Rectangle 17" d="M48.5726 85.5096C50.1049 91.2285 46.7111 97.1067 40.9923 98.6391C39.4599 92.9202 42.8537 87.042 48.5726 85.5096Z" fill="#ECEBE4"/>
<path id="Rectangle 24" d="M14.4064 103.899C12.8741 98.1805 16.2679 92.3022 21.9867 90.7698C23.5191 96.4887 20.1253 102.367 14.4064 103.899Z" fill="#ECEBE4"/>
<path id="Rectangle 19" d="M48.5726 99.5047C50.1049 105.224 46.7111 111.102 40.9923 112.634C39.4599 106.915 42.8537 101.037 48.5726 99.5047Z" fill="#ECEBE4"/>
<path id="Rectangle 25" d="M14.4064 89.9042C12.8741 84.1854 16.2679 78.3071 21.9867 76.7747C23.5191 82.4936 20.1253 88.3719 14.4064 89.9042Z" fill="#ECEBE4"/>
<path id="Vector 21" d="M11.8418 51.3323L11.8418 50.3257C11.8418 45.6001 15.6727 41.7692 20.3983 41.7692V41.7692C22.7471 41.7692 30.3569 38.7563 27.9482 27.6761C25.488 16.3595 17.256 4.08089 29.1128 1.18452C29.6669 1.04916 30.2488 1 30.8192 1C31.1493 1 31.3734 1 31.4714 1" stroke="white" stroke-width="2"/>
<path id="Vector 25" d="M51.1362 138.077L51.1362 139.083C51.1362 143.809 47.3054 147.64 42.5797 147.64V147.64C40.2309 147.64 32.6211 150.653 35.0299 161.733C37.49 173.049 45.722 185.328 33.8653 188.224C33.3112 188.36 32.7293 188.409 32.1589 188.409C31.8288 188.409 31.6047 188.409 31.5066 188.409" stroke="white" stroke-width="2"/>
<path id="Vector 23" d="M31.4718 1C31.563 1 31.7658 1 32.0633 1C32.6484 1 33.2438 1.05098 33.8109 1.19482C45.3038 4.10989 37.299 16.3729 34.9048 27.6761C32.5578 38.7563 39.9724 41.7692 42.261 41.7692V41.7692C46.8655 41.7692 50.5981 45.5019 50.5981 50.1063V51.3323L50.5981 119.152" stroke="white" stroke-width="2"/>
<path id="Vector 26" d="M31.5072 188.409C31.416 188.409 31.2132 188.409 30.9157 188.409C30.3306 188.409 29.7352 188.358 29.1681 188.214C17.6752 185.299 25.68 173.036 28.0742 161.733C30.4212 150.653 23.0066 147.64 20.718 147.64V147.64C16.1135 147.64 12.3809 143.907 12.3809 139.303L12.3809 138.077L12.3809 70.2573" stroke="white" stroke-width="2"/>
<path id="Rectangle 13" d="M52.6241 57.5194C58.343 59.0517 61.7368 64.93 60.2044 70.6489C54.4856 69.1165 51.0917 63.2382 52.6241 57.5194Z" fill="#ECEBE4"/>
<path id="Rectangle 26" d="M10.3549 131.89C4.63605 130.357 1.24223 124.479 2.77459 118.76C8.49344 120.293 11.8873 126.171 10.3549 131.89Z" fill="#ECEBE4"/>
<path id="Rectangle 16" d="M52.6241 71.514C58.343 73.0463 61.7368 78.9246 60.2044 84.6435C54.4856 83.1111 51.0917 77.2328 52.6241 71.514Z" fill="#ECEBE4"/>
<path id="Rectangle 27" d="M10.3549 117.895C4.63605 116.363 1.24223 110.484 2.77459 104.765C8.49344 106.298 11.8873 112.176 10.3549 117.895Z" fill="#ECEBE4"/>
<path id="Rectangle 18" d="M52.6241 85.5093C58.343 87.0417 61.7368 92.92 60.2044 98.6388C54.4856 97.1065 51.0917 91.2282 52.6241 85.5093Z" fill="#ECEBE4"/>
<path id="Rectangle 28" d="M10.3549 103.9C4.63605 102.367 1.24223 96.4892 2.77459 90.7703C8.49344 92.3027 11.8873 98.181 10.3549 103.9Z" fill="#ECEBE4"/>
<path id="Rectangle 20" d="M52.6241 99.5045C58.343 101.037 61.7368 106.915 60.2044 112.634C54.4856 111.102 51.0917 105.223 52.6241 99.5045Z" fill="#ECEBE4"/>
<path id="Rectangle 29" d="M10.3549 89.9045C4.63605 88.3721 1.24223 82.4938 2.77459 76.775C8.49344 78.3073 11.8873 84.1856 10.3549 89.9045Z" fill="#ECEBE4"/>
<path id="Rectangle 21" d="M50.6419 114.038C54.8283 118.225 54.8283 125.012 50.6419 129.199C46.4554 125.012 46.4554 118.225 50.6419 114.038Z" fill="#ECEBE4"/>
<path id="Rectangle 30" d="M12.3357 75.3708C8.1492 71.1844 8.1492 64.3967 12.3357 60.2102C16.5222 64.3967 16.5222 71.1844 12.3357 75.3708Z" fill="#ECEBE4"/>
</g>
</g>
</svg>
