<svg width="26" height="20" viewBox="0 0 26 20" fill="none" xmlns="http://www.w3.org/2000/svg">
<path id="Vector" d="M2.33333 2.29686L10.4768 8.36164L10.4796 8.36386C11.3838 9.01781 11.8362 9.34498 12.3317 9.47137C12.7696 9.58308 13.23 9.58308 13.668 9.47137C14.1639 9.34487 14.6176 9.01674 15.5234 8.36164C15.5234 8.36164 20.7468 4.40855 23.6667 2.29686M1 15.1834V5.18995C1 3.7171 1 2.98012 1.29065 2.41756C1.54631 1.92273 1.95396 1.5207 2.45573 1.26857C3.02616 0.981934 3.77345 0.981934 5.26693 0.981934H20.7336C22.2271 0.981934 22.9728 0.981934 23.5432 1.26857C24.045 1.5207 24.454 1.92273 24.7096 2.41756C25 2.97957 25 3.71565 25 5.18563V15.1878C25 16.6578 25 17.3928 24.7096 17.9548C24.454 18.4497 24.045 18.8524 23.5432 19.1045C22.9733 19.3909 22.228 19.3909 20.7375 19.3909H5.26255C3.77199 19.3909 3.0256 19.3909 2.45573 19.1045C1.95396 18.8524 1.54631 18.4497 1.29065 17.9548C1 17.3923 1 16.6562 1 15.1834Z" stroke="white" stroke-linecap="round" stroke-linejoin="round"/>
</svg>
