<svg width="83" height="65" viewBox="0 0 83 65" fill="none" xmlns="http://www.w3.org/2000/svg">
<g id="logo">
<g id="Savka Bakery">
<path d="M30.8001 28.7892C30.0763 28.7892 29.4017 28.6531 28.7764 28.381C28.151 28.1088 27.6096 27.773 27.1522 27.3735C26.7005 26.9681 26.3676 26.5686 26.1533 26.1749C26.1996 26.1112 26.301 26.0098 26.4573 25.8709C26.6137 25.7319 26.7787 25.5929 26.9524 25.454C27.1261 25.3092 27.268 25.205 27.378 25.1413C27.5054 25.3266 27.6704 25.5437 27.8731 25.7927C28.0815 26.0417 28.3305 26.2849 28.62 26.5223C28.9095 26.7597 29.2367 26.9595 29.6015 27.1216C29.9721 27.2779 30.3774 27.3561 30.8175 27.3561C31.3733 27.3561 31.8221 27.2519 32.1637 27.0434C32.5053 26.8292 32.7543 26.5657 32.9107 26.253C33.067 25.9346 33.1452 25.619 33.1452 25.3063C33.1452 24.9126 33.0091 24.5796 32.737 24.3075C32.4706 24.0295 32.1116 23.7892 31.66 23.5866C31.2141 23.3839 30.7219 23.2015 30.1834 23.0394C29.5001 22.8251 28.8979 22.582 28.3768 22.3098C27.8557 22.0377 27.4475 21.6989 27.1522 21.2936C26.8568 20.8883 26.7092 20.3787 26.7092 19.7649C26.7092 19.1454 26.88 18.63 27.2216 18.2189C27.5633 17.802 28.0149 17.4893 28.5766 17.2809C29.144 17.0724 29.7607 16.9682 30.4266 16.9682C31.0346 16.9682 31.602 17.0493 32.129 17.2114C32.6617 17.3735 33.1249 17.5762 33.5187 17.8194C33.9124 18.0568 34.2048 18.3 34.3959 18.549C34.3438 18.6358 34.2598 18.7545 34.144 18.9051C34.0282 19.0498 33.9066 19.1946 33.7792 19.3394C33.6518 19.4841 33.5447 19.597 33.4579 19.6781C33.3015 19.5044 33.0786 19.3133 32.7891 19.1048C32.4996 18.8906 32.1463 18.7082 31.7294 18.5577C31.3183 18.4013 30.8522 18.3231 30.3311 18.3231C29.752 18.3231 29.2888 18.4621 28.9414 18.74C28.594 19.0122 28.4202 19.3799 28.4202 19.8431C28.4202 20.179 28.5216 20.4511 28.7242 20.6596C28.9327 20.868 29.1904 21.0388 29.4973 21.172C29.8099 21.2994 30.1255 21.4094 30.444 21.5021C31.0172 21.6816 31.5673 21.8668 32.0942 22.0579C32.6269 22.249 33.1017 22.4777 33.5187 22.7441C33.9414 23.0046 34.2743 23.3318 34.5175 23.7255C34.7607 24.1135 34.8823 24.5912 34.8823 25.1587C34.8823 25.7898 34.7202 26.3833 34.3959 26.9392C34.0716 27.4893 33.6026 27.9351 32.9888 28.2768C32.3809 28.6184 31.6513 28.7892 30.8001 28.7892Z" fill="white"/>
<path d="M40.4874 28.8674C39.7636 28.8674 39.1064 28.7718 38.5158 28.5808C37.931 28.3839 37.4649 28.0712 37.1175 27.6427C36.77 27.2084 36.5963 26.6323 36.5963 25.9143C36.5963 25.2253 36.7903 24.6578 37.1783 24.2119C37.5662 23.7603 38.0902 23.4244 38.7503 23.2044C39.4162 22.9844 40.1603 22.8744 40.9825 22.8744C41.3589 22.8744 41.7295 22.9033 42.0943 22.9612C42.4591 23.0191 42.7746 23.0828 43.041 23.1523C43.3131 23.2218 43.4955 23.2768 43.5882 23.3173C43.5708 23.1262 43.5361 22.9323 43.484 22.7354C43.4318 22.5385 43.3595 22.3619 43.2668 22.2056C43.0468 21.8176 42.7254 21.4992 42.3027 21.2502C41.8858 20.9954 41.3618 20.868 40.7306 20.868C40.059 20.868 39.4915 21.0128 39.0283 21.3023C38.5708 21.5918 38.2263 21.9305 37.9947 22.3185L36.5876 21.3891C36.964 20.8275 37.5228 20.3642 38.2639 19.9995C39.0109 19.6347 39.8534 19.4523 40.7914 19.4523C41.7642 19.4523 42.5691 19.6405 43.206 20.0168C43.843 20.3874 44.3091 20.8738 44.6044 21.476C44.7549 21.7829 44.8736 22.1187 44.9605 22.4835C45.0473 22.8483 45.0995 23.3 45.1168 23.8385C45.1284 24.4059 45.14 24.8923 45.1516 25.2976C45.1689 25.6972 45.1863 26.0388 45.2037 26.3225C45.2326 26.6989 45.2905 26.9421 45.3774 27.0521C45.4643 27.1621 45.5887 27.2171 45.7509 27.2171C45.9362 27.2171 46.0896 27.139 46.2112 26.9826C46.3386 26.8205 46.4139 26.5947 46.437 26.3052L47.2708 27.2258C47.2361 27.7122 47.0653 28.0828 46.7584 28.3376C46.4515 28.5923 46.0925 28.7197 45.6814 28.7197C45.195 28.7197 44.7984 28.5866 44.4915 28.3202C44.1904 28.048 44.0225 27.7556 43.9877 27.443C43.8661 27.6572 43.6403 27.8743 43.3102 28.0944C42.9802 28.3144 42.572 28.4997 42.0856 28.6502C41.605 28.795 41.0723 28.8674 40.4874 28.8674ZM40.8001 27.5038C41.3618 27.5038 41.9032 27.3793 42.4243 27.1303C42.9454 26.8813 43.3537 26.5831 43.649 26.2357C43.6432 25.8825 43.6432 25.564 43.649 25.2803C43.6548 24.9965 43.6635 24.736 43.675 24.4986C43.5071 24.4407 43.1857 24.3654 42.7109 24.2727C42.2361 24.1743 41.7005 24.1251 41.1041 24.1251C40.334 24.1251 39.6797 24.2756 39.1412 24.5767C38.6027 24.8778 38.3334 25.2976 38.3334 25.8361C38.3334 26.4904 38.5621 26.9334 39.0196 27.165C39.4828 27.3908 40.0763 27.5038 40.8001 27.5038Z" fill="white"/>
<path d="M53.2084 19.2091C53.6021 19.2843 53.9582 19.3712 54.2767 19.4696C54.5951 19.5623 54.7833 19.6202 54.8412 19.6433C54.7428 20.0371 54.6009 20.5264 54.4156 21.1112C54.2304 21.696 54.019 22.333 53.7816 23.022C53.55 23.7053 53.3039 24.3972 53.0433 25.0979C52.7886 25.7985 52.5367 26.4644 52.2877 27.0955C52.0445 27.7267 51.8187 28.2739 51.6102 28.7371C51.4191 28.7718 51.1644 28.7892 50.8459 28.7892C50.7011 28.7892 50.5622 28.7834 50.429 28.7718C50.3016 28.7603 50.1916 28.7487 50.0989 28.7371C49.6589 27.828 49.2333 26.8437 48.8222 25.784C48.4168 24.7244 48.0347 23.6619 47.6757 22.5964C47.3225 21.5252 47.0069 20.5235 46.7289 19.5912C46.8332 19.5623 46.9808 19.5246 47.1719 19.4783C47.3688 19.432 47.5686 19.3828 47.7712 19.3307C47.9739 19.2786 48.1418 19.2351 48.275 19.2004C48.3618 19.5652 48.4863 20.0081 48.6485 20.5293C48.8106 21.0446 48.9901 21.5976 49.187 22.1882C49.3838 22.773 49.5836 23.3521 49.7863 23.9253C49.9947 24.4986 50.1916 25.0255 50.3769 25.5061C50.5622 25.9867 50.7185 26.3775 50.8459 26.6786C51.0254 26.2154 51.2252 25.6711 51.4452 25.0457C51.671 24.4146 51.8968 23.7516 52.1227 23.0568C52.3485 22.3619 52.5569 21.6816 52.748 21.0157C52.9391 20.344 53.0926 19.7418 53.2084 19.2091Z" fill="white"/>
<path d="M63.0996 29.0585C62.9722 28.8384 62.7956 28.5634 62.5697 28.2333C62.3439 27.8975 62.092 27.5385 61.8141 27.1563C61.5362 26.7742 61.2524 26.4007 60.9629 26.0359C60.6734 25.6711 60.4012 25.3468 60.1465 25.0631C59.8975 24.7794 59.689 24.5709 59.5211 24.4378C59.4111 24.5246 59.2663 24.6404 59.0868 24.7852C58.9073 24.9242 58.7394 25.0602 58.5831 25.1934C58.4267 25.3266 58.3254 25.4163 58.2791 25.4627C58.2733 25.7116 58.2617 26.0098 58.2443 26.3573C58.2328 26.6989 58.2183 27.0434 58.2009 27.3908C58.1835 27.7383 58.1662 28.0509 58.1488 28.3289C58.1314 28.6068 58.1199 28.8066 58.1141 28.9282C57.8361 28.9629 57.564 28.9803 57.2976 28.9803C57.1239 28.9803 56.956 28.9745 56.7939 28.9629C56.6375 28.9513 56.4957 28.934 56.3683 28.9108C56.3798 28.7776 56.3972 28.4765 56.4204 28.0075C56.4435 27.5385 56.4696 26.9595 56.4985 26.2704C56.5275 25.5814 56.5593 24.8315 56.5941 24.0209C56.6288 23.2102 56.6607 22.3938 56.6896 21.5715C56.7244 20.7493 56.7562 19.9705 56.7852 19.2351C56.8141 18.494 56.8344 17.8512 56.846 17.3069C56.8633 16.7569 56.872 16.3573 56.872 16.1083C56.982 16.1025 57.1036 16.0968 57.2368 16.091C57.37 16.0852 57.5003 16.0823 57.6277 16.0823C58.004 16.0823 58.3138 16.117 58.557 16.1865C58.557 16.6208 58.5512 17.1187 58.5396 17.6804C58.5281 18.2421 58.5136 18.8211 58.4962 19.4175C58.4846 20.0139 58.4673 20.5872 58.4441 21.1373C58.4267 21.6873 58.4094 22.1737 58.392 22.5964C58.3746 23.0191 58.3601 23.3318 58.3486 23.5345C58.6844 23.1928 59.0897 22.8454 59.5645 22.4922C60.0394 22.1332 60.5286 21.7887 61.0324 21.4586C61.542 21.1286 62.0197 20.8304 62.4655 20.564C62.9114 20.2977 63.2733 20.0805 63.5512 19.9126C63.6439 20.011 63.751 20.1442 63.8726 20.3121C64 20.4743 64.1187 20.6393 64.2287 20.8072C64.3445 20.9693 64.4313 21.0996 64.4892 21.1981C64.2866 21.3139 64.0173 21.4702 63.6815 21.6671C63.3456 21.8639 62.9866 22.0782 62.6045 22.3098C62.2223 22.5414 61.8633 22.7672 61.5275 22.9873C61.1974 23.2015 60.9369 23.381 60.7458 23.5258C60.9021 23.6474 61.1395 23.8819 61.458 24.2293C61.7765 24.5767 62.1297 24.9878 62.5176 25.4627C62.9056 25.9317 63.2906 26.4268 63.6728 26.9479C64.055 27.4632 64.3879 27.9496 64.6716 28.4071C64.6079 28.4534 64.469 28.5229 64.2547 28.6155C64.0405 28.7024 63.8205 28.7892 63.5946 28.8761C63.3688 28.9687 63.2038 29.0295 63.0996 29.0585Z" fill="white"/>
<path d="M69.3431 28.8674C68.6193 28.8674 67.9621 28.7718 67.3715 28.5808C66.7867 28.3839 66.3205 28.0712 65.9731 27.6427C65.6257 27.2084 65.452 26.6323 65.452 25.9143C65.452 25.2253 65.646 24.6578 66.0339 24.2119C66.4219 23.7603 66.9459 23.4244 67.606 23.2044C68.2719 22.9844 69.0159 22.8744 69.8382 22.8744C70.2146 22.8744 70.5851 22.9033 70.9499 22.9612C71.3147 23.0191 71.6303 23.0828 71.8966 23.1523C72.1688 23.2218 72.3512 23.2768 72.4438 23.3173C72.4265 23.1262 72.3917 22.9323 72.3396 22.7354C72.2875 22.5385 72.2151 22.3619 72.1225 22.2056C71.9024 21.8176 71.5811 21.4992 71.1584 21.2502C70.7415 20.9954 70.2174 20.868 69.5863 20.868C68.9146 20.868 68.3472 21.0128 67.8839 21.3023C67.4265 21.5918 67.082 21.9305 66.8504 22.3185L65.4433 21.3891C65.8197 20.8275 66.3784 20.3642 67.1196 19.9995C67.8666 19.6347 68.7091 19.4523 69.6471 19.4523C70.6199 19.4523 71.4247 19.6405 72.0617 20.0168C72.6986 20.3874 73.1647 20.8738 73.46 21.476C73.6106 21.7829 73.7293 22.1187 73.8162 22.4835C73.903 22.8483 73.9551 23.3 73.9725 23.8385C73.9841 24.4059 73.9957 24.8923 74.0072 25.2976C74.0246 25.6972 74.042 26.0388 74.0593 26.3225C74.0883 26.6989 74.1462 26.9421 74.2331 27.0521C74.3199 27.1621 74.4444 27.2171 74.6065 27.2171C74.7918 27.2171 74.9453 27.139 75.0669 26.9826C75.1943 26.8205 75.2695 26.5947 75.2927 26.3052L76.1265 27.2258C76.0918 27.7122 75.9209 28.0828 75.6141 28.3376C75.3072 28.5923 74.9482 28.7197 74.5371 28.7197C74.0507 28.7197 73.654 28.5866 73.3471 28.3202C73.046 28.048 72.8781 27.7556 72.8434 27.443C72.7218 27.6572 72.4959 27.8743 72.1659 28.0944C71.8358 28.3144 71.4276 28.4997 70.9412 28.6502C70.4606 28.795 69.9279 28.8674 69.3431 28.8674ZM69.6558 27.5038C70.2174 27.5038 70.7588 27.3793 71.28 27.1303C71.8011 26.8813 72.2093 26.5831 72.5046 26.2357C72.4988 25.8825 72.4988 25.564 72.5046 25.2803C72.5104 24.9965 72.5191 24.736 72.5307 24.4986C72.3628 24.4407 72.0414 24.3654 71.5666 24.2727C71.0918 24.1743 70.5562 24.1251 69.9598 24.1251C69.1897 24.1251 68.5353 24.2756 67.9968 24.5767C67.4583 24.8778 67.1891 25.2976 67.1891 25.8361C67.1891 26.4904 67.4178 26.9334 67.8752 27.165C68.3385 27.3908 68.932 27.5038 69.6558 27.5038Z" fill="white"/>
<path d="M27.1956 45.8997C27.1956 45.6797 27.1985 45.3207 27.2043 44.8227C27.2101 44.3247 27.2159 43.7457 27.2216 43.0856C27.2332 42.4197 27.2448 41.722 27.2564 40.9924C27.268 40.257 27.2766 39.539 27.2824 38.8384C27.294 38.132 27.3027 37.4892 27.3085 36.9102C27.3201 36.3254 27.3288 35.8535 27.3346 35.4944C27.3403 35.1297 27.3432 34.9299 27.3432 34.8951C27.7196 34.8604 28.2176 34.8228 28.8372 34.7822C29.4625 34.7359 30.1255 34.7128 30.8261 34.7128C31.4515 34.7128 32.0103 34.8025 32.5024 34.982C32.9946 35.1557 33.3826 35.4337 33.6663 35.8158C33.95 36.198 34.0919 36.6988 34.0919 37.3184C34.0919 37.7469 33.9964 38.158 33.8053 38.5518C33.6142 38.9397 33.371 39.2698 33.0757 39.5419C32.7862 39.8083 32.4851 39.9762 32.1724 40.0457C32.2245 40.0399 32.2911 40.0399 32.3722 40.0457C32.8701 40.063 33.3218 40.176 33.7271 40.3844C34.1382 40.5871 34.4654 40.8708 34.7086 41.2356C34.9518 41.6004 35.0734 42.026 35.0734 42.5124C35.0734 43.2477 34.917 43.847 34.6043 44.3103C34.2917 44.7735 33.8545 45.1296 33.2928 45.3786C32.737 45.6276 32.0913 45.7984 31.356 45.891C30.6206 45.9837 29.8302 46.03 28.9848 46.03C28.6548 46.03 28.3334 46.0213 28.0207 46.0039C27.708 45.9808 27.433 45.946 27.1956 45.8997ZM28.9935 39.5767C29.6304 39.5709 30.1226 39.5477 30.47 39.5072C30.8175 39.4666 31.107 39.3856 31.3386 39.264C31.6744 39.1366 31.9639 38.9166 32.2071 38.6039C32.4503 38.2854 32.5719 37.9293 32.5719 37.5355C32.5719 36.9681 32.4011 36.5686 32.0595 36.3369C31.7179 36.1053 31.2604 35.9895 30.6872 35.9895C30.3687 35.9895 30.0473 36.0069 29.7231 36.0416C29.4046 36.0764 29.1527 36.1053 28.9674 36.1285L28.9935 39.5767ZM29.0109 44.4058C29.0514 44.4058 29.1064 44.4058 29.1759 44.4058C29.2512 44.4058 29.3322 44.4058 29.4191 44.4058C30.1023 44.4058 30.7509 44.3595 31.3646 44.2668C31.9784 44.1742 32.4793 43.9889 32.8672 43.711C33.261 43.4272 33.4579 43.0103 33.4579 42.4602C33.4579 42.0607 33.3334 41.7509 33.0844 41.5309C32.8354 41.3051 32.5024 41.1458 32.0855 41.0532C31.6686 40.9605 31.2025 40.9142 30.6872 40.9142C30.5887 40.9142 30.4295 40.9171 30.2095 40.9229C29.9952 40.9287 29.7752 40.9374 29.5494 40.949C29.3235 40.9548 29.1469 40.9634 29.0195 40.975L29.0109 44.4058Z" fill="white"/>
<path d="M40.674 46.2385C39.9502 46.2385 39.293 46.1429 38.7024 45.9518C38.1176 45.755 37.6515 45.4423 37.3041 45.0138C36.9566 44.5795 36.7829 44.0034 36.7829 43.2854C36.7829 42.5963 36.9769 42.0289 37.3649 41.583C37.7528 41.1314 38.2768 40.7955 38.9369 40.5755C39.6028 40.3555 40.3469 40.2454 41.1691 40.2454C41.5455 40.2454 41.9161 40.2744 42.2809 40.3323C42.6457 40.3902 42.9612 40.4539 43.2276 40.5234C43.4997 40.5929 43.6821 40.6479 43.7748 40.6884C43.7574 40.4973 43.7227 40.3033 43.6706 40.1065C43.6184 39.9096 43.5461 39.733 43.4534 39.5767C43.2334 39.1887 42.912 38.8702 42.4893 38.6212C42.0724 38.3665 41.5484 38.2391 40.9172 38.2391C40.2456 38.2391 39.6781 38.3838 39.2149 38.6734C38.7574 38.9629 38.4129 39.3016 38.1813 39.6896L36.7742 38.7602C37.1506 38.1985 37.7094 37.7353 38.4505 37.3705C39.1975 37.0057 40.04 36.8233 40.978 36.8233C41.9508 36.8233 42.7557 37.0115 43.3926 37.3879C44.0296 37.7585 44.4957 38.2449 44.791 38.8471C44.9415 39.154 45.0602 39.4898 45.1471 39.8546C45.234 40.2194 45.2861 40.671 45.3034 41.2095C45.315 41.777 45.3266 42.2634 45.3382 42.6687C45.3555 43.0682 45.3729 43.4099 45.3903 43.6936C45.4192 44.07 45.4771 44.3132 45.564 44.4232C45.6509 44.5332 45.7754 44.5882 45.9375 44.5882C46.1228 44.5882 46.2762 44.51 46.3978 44.3537C46.5252 44.1916 46.6005 43.9657 46.6236 43.6762L47.4574 44.5969C47.4227 45.0833 47.2519 45.4539 46.945 45.7086C46.6381 45.9634 46.2791 46.0908 45.868 46.0908C45.3816 46.0908 44.985 45.9576 44.6781 45.6913C44.377 45.4191 44.2091 45.1267 44.1743 44.814C44.0527 45.0283 43.8269 45.2454 43.4968 45.4654C43.1668 45.6855 42.7586 45.8708 42.2722 46.0213C41.7916 46.1661 41.2589 46.2385 40.674 46.2385ZM40.9867 44.8748C41.5484 44.8748 42.0898 44.7503 42.6109 44.5014C43.1321 44.2524 43.5403 43.9542 43.8356 43.6067C43.8298 43.2535 43.8298 42.9351 43.8356 42.6513C43.8414 42.3676 43.8501 42.107 43.8616 41.8696C43.6937 41.8117 43.3724 41.7365 42.8975 41.6438C42.4227 41.5454 41.8871 41.4962 41.2907 41.4962C40.5206 41.4962 39.8663 41.6467 39.3278 41.9478C38.7893 42.2489 38.52 42.6687 38.52 43.2072C38.52 43.8615 38.7488 44.3045 39.2062 44.5361C39.6694 44.7619 40.2629 44.8748 40.9867 44.8748Z" fill="white"/>
<path d="M55.1435 46.4295C55.0161 46.2095 54.8395 45.9345 54.6137 45.6044C54.3878 45.2686 54.1359 44.9096 53.858 44.5274C53.5801 44.1452 53.2963 43.7718 53.0068 43.407C52.7173 43.0422 52.4452 42.7179 52.1904 42.4342C51.9414 42.1505 51.733 41.942 51.565 41.8088C51.455 41.8957 51.3103 42.0115 51.1308 42.1563C50.9513 42.2952 50.7833 42.4313 50.627 42.5645C50.4706 42.6977 50.3693 42.7874 50.323 42.8337C50.3172 43.0827 50.3056 43.3809 50.2883 43.7283C50.2767 44.07 50.2622 44.4145 50.2448 44.7619C50.2275 45.1093 50.2101 45.422 50.1927 45.7C50.1753 45.9779 50.1638 46.1777 50.158 46.2993C49.88 46.334 49.6079 46.3514 49.3415 46.3514C49.1678 46.3514 48.9999 46.3456 48.8378 46.334C48.6814 46.3224 48.5396 46.305 48.4122 46.2819C48.4238 46.1487 48.4411 45.8476 48.4643 45.3786C48.4875 44.9096 48.5135 44.3305 48.5425 43.6415C48.5714 42.9524 48.6033 42.2026 48.638 41.3919C48.6727 40.5813 48.7046 39.7648 48.7335 38.9426C48.7683 38.1204 48.8001 37.3416 48.8291 36.6062C48.858 35.865 48.8783 35.2223 48.8899 34.678C48.9073 34.1279 48.9159 33.7284 48.9159 33.4794C49.026 33.4736 49.1476 33.4678 49.2807 33.462C49.4139 33.4562 49.5442 33.4533 49.6716 33.4533C50.048 33.4533 50.3577 33.4881 50.6009 33.5576C50.6009 33.9919 50.5951 34.4898 50.5836 35.0515C50.572 35.6132 50.5575 36.1922 50.5401 36.7886C50.5286 37.385 50.5112 37.9582 50.488 38.5083C50.4706 39.0584 50.4533 39.5448 50.4359 39.9675C50.4185 40.3902 50.4041 40.7029 50.3925 40.9055C50.7283 40.5639 51.1336 40.2165 51.6085 39.8633C52.0833 39.5043 52.5726 39.1597 53.0763 38.8297C53.5859 38.4996 54.0636 38.2014 54.5094 37.9351C54.9553 37.6687 55.3172 37.4516 55.5951 37.2837C55.6878 37.3821 55.7949 37.5153 55.9165 37.6832C56.0439 37.8453 56.1626 38.0104 56.2726 38.1783C56.3884 38.3404 56.4753 38.4707 56.5332 38.5691C56.3305 38.6849 56.0612 38.8413 55.7254 39.0381C55.3896 39.235 55.0306 39.4493 54.6484 39.6809C54.2662 39.9125 53.9072 40.1383 53.5714 40.3584C53.2413 40.5726 52.9808 40.7521 52.7897 40.8969C52.946 41.0185 53.1834 41.253 53.5019 41.6004C53.8204 41.9478 54.1736 42.3589 54.5615 42.8337C54.9495 43.3027 55.3346 43.7978 55.7167 44.319C56.0989 44.8343 56.4318 45.3207 56.7155 45.7781C56.6519 45.8244 56.5129 45.8939 56.2986 45.9866C56.0844 46.0734 55.8644 46.1603 55.6385 46.2471C55.4127 46.3398 55.2477 46.4006 55.1435 46.4295Z" fill="white"/>
<path d="M66.0454 44.1192C65.8891 44.3392 65.6343 44.594 65.2811 44.8835C64.9337 45.173 64.4878 45.4249 63.9435 45.6392C63.3993 45.8534 62.7536 45.9605 62.0067 45.9605C60.6981 45.9605 59.6471 45.5668 58.8538 44.7793C58.0605 43.9918 57.6639 42.8627 57.6639 41.3919C57.6639 40.4539 57.8579 39.6403 58.2458 38.9513C58.6396 38.2622 59.1781 37.7295 59.8613 37.3532C60.5446 36.9768 61.3292 36.7886 62.2151 36.7886C63.3211 36.7886 64.1867 37.1273 64.8121 37.8048C65.4375 38.4823 65.7849 39.3914 65.8544 40.5321C65.8775 40.8969 65.8746 41.2501 65.8457 41.5917C65.7704 41.5859 65.6141 41.5801 65.3767 41.5743C65.145 41.5627 64.8729 41.5541 64.5602 41.5483C64.2475 41.5367 63.932 41.528 63.6135 41.5222C63.3008 41.5106 63.0316 41.5048 62.8057 41.5048C62.2209 41.5048 61.6187 41.5338 60.9991 41.5917C60.3854 41.6496 59.8411 41.7162 59.3663 41.7915C59.3721 41.942 59.3865 42.0897 59.4097 42.2344C59.4329 42.3792 59.4618 42.5182 59.4966 42.6513C59.6413 43.184 59.9627 43.6038 60.4606 43.9107C60.9644 44.2176 61.5174 44.3711 62.1196 44.3711C62.687 44.3711 63.1618 44.2639 63.544 44.0497C63.9262 43.8297 64.2302 43.5952 64.456 43.3462C64.6818 43.0914 64.8439 42.9119 64.9424 42.8077C64.9945 42.8482 65.0958 42.9437 65.2464 43.0943C65.3969 43.2448 65.5504 43.4157 65.7067 43.6067C65.8688 43.7978 65.9818 43.9686 66.0454 44.1192ZM59.3923 40.6276C59.8092 40.5581 60.2985 40.4973 60.8602 40.4452C61.4276 40.3931 62.0704 40.367 62.7884 40.367C63.1647 40.367 63.4832 40.3728 63.7438 40.3844C64.0043 40.396 64.1896 40.4047 64.2997 40.4105C64.2997 40.2194 64.2765 40.0167 64.2302 39.8025C64.1665 39.5187 64.0507 39.2408 63.8827 38.9687C63.7148 38.6907 63.4861 38.462 63.1966 38.2825C62.9129 38.0972 62.5539 38.0046 62.1196 38.0046C61.3668 38.0046 60.7299 38.2391 60.2088 38.7081C59.6876 39.1771 59.4155 39.817 59.3923 40.6276Z" fill="white"/>
<path d="M69.0378 38.3607C69.2115 38.0712 69.4633 37.8048 69.7934 37.5616C70.1292 37.3184 70.5056 37.1244 70.9225 36.9797C71.3452 36.8291 71.7679 36.7539 72.1906 36.7539C72.4627 36.7539 72.7378 36.7799 73.0157 36.832C73.2937 36.8783 73.5108 36.9449 73.6671 37.0318L73.3197 38.7776C73.1807 38.7197 73.0013 38.6589 72.7812 38.5952C72.567 38.5257 72.3006 38.491 71.9821 38.491C71.4668 38.491 70.963 38.627 70.4709 38.8992C69.9787 39.1655 69.5936 39.5072 69.3157 39.9241C69.3968 40.3294 69.4749 40.8245 69.5502 41.4093C69.6313 41.9941 69.7036 42.5934 69.7673 43.2072C69.831 43.821 69.8831 44.3826 69.9237 44.8922C69.9642 45.396 69.9845 45.7752 69.9845 46.03C69.7355 46.0532 69.4315 46.0676 69.0725 46.0734C68.7135 46.0792 68.3834 46.0792 68.0823 46.0734C68.0823 45.1701 68.0476 44.1974 67.9781 43.1551C67.9144 42.107 67.8131 41.0648 67.6741 40.0283C67.5352 38.986 67.3585 38.0277 67.1443 37.1534C67.3006 37.1071 67.483 37.0607 67.6915 37.0144C67.9057 36.9681 68.1026 36.9276 68.2821 36.8928C68.4616 36.8581 68.5832 36.8378 68.6469 36.832C68.7164 37.0289 68.7917 37.2837 68.8727 37.5963C68.9596 37.909 69.0146 38.1638 69.0378 38.3607Z" fill="white"/>
<path d="M77.8606 50.642C77.05 50.642 76.3291 50.5146 75.6979 50.2599C75.0668 50.0051 74.5746 49.7532 74.2214 49.5042C74.2619 49.3942 74.3314 49.2437 74.4298 49.0526C74.5283 48.8673 74.6325 48.682 74.7425 48.4967C74.8525 48.3114 74.9452 48.1695 75.0205 48.0711C75.1768 48.1869 75.4084 48.323 75.7153 48.4793C76.0222 48.6415 76.3667 48.7833 76.7489 48.9049C77.1368 49.0265 77.5306 49.0873 77.9301 49.0873C78.4454 49.0873 78.8826 48.9512 79.2416 48.6791C79.6006 48.4127 79.8901 48.0479 80.1102 47.5847C80.3302 47.1273 80.4895 46.609 80.5879 46.03C80.6921 45.451 80.7471 44.8546 80.7529 44.2408C80.6545 44.4608 80.4981 44.6837 80.2839 44.9096C80.0754 45.1354 79.7975 45.3265 79.4501 45.4828C79.1027 45.6334 78.6771 45.7086 78.1733 45.7086C77.3453 45.7086 76.7054 45.4683 76.2538 44.9877C75.8022 44.5014 75.4866 43.8412 75.3071 43.0074C75.1334 42.1678 75.0465 41.2182 75.0465 40.1586C75.0465 39.7533 75.0552 39.3335 75.0726 38.8992C75.0899 38.4649 75.1102 38.0162 75.1334 37.5529C75.2086 37.5356 75.3187 37.524 75.4634 37.5182C75.6082 37.5124 75.7616 37.5095 75.9238 37.5095C76.109 37.5095 76.2914 37.5153 76.4709 37.5269C76.6504 37.5327 76.772 37.5442 76.8357 37.5616C76.8242 37.6311 76.8039 37.799 76.7749 38.0654C76.7518 38.3259 76.7286 38.6415 76.7054 39.0121C76.6881 39.3769 76.6794 39.7562 76.6794 40.1499C76.6794 40.6131 76.6997 41.0793 76.7402 41.5483C76.7807 42.0115 76.8589 42.4371 76.9747 42.825C77.0963 43.213 77.2729 43.5257 77.5045 43.7631C77.7361 43.9947 78.0459 44.1105 78.4339 44.1105C79.0824 44.1105 79.5977 43.8326 79.9799 43.2767C80.3621 42.715 80.5908 41.9073 80.6661 40.8534C80.6892 40.5813 80.7066 40.2773 80.7182 39.9414C80.7355 39.6056 80.75 39.2785 80.7616 38.96C80.7732 38.6415 80.779 38.3723 80.779 38.1522C80.7848 37.9264 80.7848 37.7903 80.779 37.744C80.9701 37.7208 81.164 37.7093 81.3609 37.7093C81.7141 37.7093 82.0355 37.744 82.325 37.8135C82.3482 38.2999 82.3597 38.8789 82.3597 39.5506C82.3597 40.3844 82.3395 41.3398 82.2989 42.4168C82.2584 43.488 82.2121 44.539 82.16 45.5697C82.1079 46.5482 81.9168 47.4197 81.5867 48.184C81.2625 48.9483 80.7905 49.5476 80.171 49.9819C79.5572 50.422 78.7871 50.642 77.8606 50.642Z" fill="white"/>
</g>
<g id="Group 5">
<path id="Rectangle 14" d="M16.3285 19.9995C16.8436 21.922 15.7028 23.8981 13.7803 24.4132C13.2652 22.4907 14.406 20.5147 16.3285 19.9995Z" fill="white"/>
<path id="Rectangle 22" d="M4.84238 45.0003C4.32726 43.0779 5.46814 41.1018 7.39061 40.5867C7.90573 42.5092 6.76485 44.4852 4.84238 45.0003Z" fill="white"/>
<path id="Rectangle 15" d="M16.3285 24.7042C16.8436 26.6267 15.7028 28.6028 13.7803 29.1179C13.2652 27.1954 14.406 25.2194 16.3285 24.7042Z" fill="white"/>
<path id="Rectangle 23" d="M4.84238 40.2958C4.32726 38.3733 5.46814 36.3972 7.39061 35.8821C7.90573 37.8046 6.76485 39.7806 4.84238 40.2958Z" fill="white"/>
<path id="Rectangle 17" d="M16.3285 29.4088C16.8436 31.3313 15.7028 33.3074 13.7803 33.8225C13.2652 31.9 14.406 29.924 16.3285 29.4088Z" fill="white"/>
<path id="Rectangle 24" d="M4.84238 35.591C4.32726 33.6686 5.46814 31.6925 7.39061 31.1774C7.90573 33.0999 6.76485 35.0759 4.84238 35.591Z" fill="white"/>
<path id="Rectangle 19" d="M16.3285 34.1137C16.8436 36.0361 15.7028 38.0122 13.7803 38.5273C13.2652 36.6049 14.406 34.6288 16.3285 34.1137Z" fill="white"/>
<path id="Rectangle 25" d="M4.84238 30.8865C4.32726 28.964 5.46814 26.9879 7.39061 26.4728C7.90573 28.3953 6.76485 30.3713 4.84238 30.8865Z" fill="white"/>
<path id="Vector 21" d="M3.98047 17.9199V17.5815C3.98047 15.9929 5.26827 14.7051 6.85685 14.7051V14.7051C7.64644 14.7051 10.2046 13.6923 9.39483 9.96754C8.58293 6.23278 5.90098 2.18635 9.57464 1.11851C9.89886 1.02427 10.2416 1 10.5792 1V1" stroke="white" stroke-width="2"/>
<path id="Vector 25" d="M17.1899 47.0802L17.1899 47.4186C17.1899 49.0072 15.9021 50.295 14.3136 50.295V50.295C13.524 50.295 10.9659 51.3078 11.7756 55.0326C12.5875 58.7673 15.2694 62.8138 11.5958 63.8816C11.2716 63.9758 10.9288 64.0001 10.5912 64.0001V64.0001" stroke="white" stroke-width="2"/>
<path id="Vector 23" d="M10.5802 1V1C10.9091 1 11.2431 1.02431 11.5583 1.11829C15.1389 2.1858 12.5254 6.23253 11.7342 9.96754C10.9453 13.6923 13.4378 14.7051 14.2071 14.7051V14.7051C15.755 14.7051 17.0098 15.9599 17.0098 17.5077V17.9199L17.0098 40.7182" stroke="white" stroke-width="2"/>
<path id="Vector 26" d="M10.5912 64.0001V64.0001C10.2622 64.0001 9.92832 63.9758 9.61309 63.8818C6.03253 62.8143 8.64602 58.7676 9.43716 55.0326C10.2261 51.3078 7.7336 50.295 6.96425 50.295V50.295C5.4164 50.295 4.16162 49.0402 4.16162 47.4924L4.16162 47.0802L4.16162 24.2819" stroke="white" stroke-width="2"/>
<path id="Rectangle 13" d="M17.6904 19.9997C19.6129 20.5148 20.7538 22.4908 20.2387 24.4133C18.3162 23.8982 17.1753 21.9221 17.6904 19.9997Z" fill="white"/>
<path id="Rectangle 26" d="M3.48094 45.0005C1.55847 44.4853 0.417591 42.5093 0.932715 40.5868C2.85518 41.1019 3.99606 43.078 3.48094 45.0005Z" fill="white"/>
<path id="Rectangle 16" d="M17.6904 24.7042C19.6129 25.2194 20.7538 27.1954 20.2387 29.1179C18.3162 28.6028 17.1753 26.6267 17.6904 24.7042Z" fill="white"/>
<path id="Rectangle 27" d="M3.48094 40.2958C1.55847 39.7806 0.417591 37.8046 0.932715 35.8821C2.85518 36.3972 3.99606 38.3733 3.48094 40.2958Z" fill="white"/>
<path id="Rectangle 18" d="M17.6904 29.4091C19.6129 29.9242 20.7538 31.9003 20.2387 33.8227C18.3162 33.3076 17.1753 31.3316 17.6904 29.4091Z" fill="white"/>
<path id="Rectangle 28" d="M3.48094 35.591C1.55847 35.0759 0.417591 33.0999 0.932715 31.1774C2.85518 31.6925 3.99606 33.6686 3.48094 35.591Z" fill="white"/>
<path id="Rectangle 20" d="M17.6904 34.1136C19.6129 34.6287 20.7538 36.6047 20.2387 38.5272C18.3162 38.0121 17.1753 36.036 17.6904 34.1136Z" fill="white"/>
<path id="Rectangle 29" d="M3.48094 30.8863C1.55847 30.3712 0.417591 28.3951 0.932715 26.4727C2.85518 26.9878 3.99606 28.9639 3.48094 30.8863Z" fill="white"/>
<path id="Rectangle 21" d="M17.024 38.9993C18.4314 40.4066 18.4314 42.6884 17.024 44.0957C15.6167 42.6884 15.6167 40.4066 17.024 38.9993Z" fill="white"/>
<path id="Rectangle 30" d="M4.14686 26.0009C2.73951 24.5935 2.73951 22.3118 4.14686 20.9044C5.5542 22.3118 5.5542 24.5935 4.14686 26.0009Z" fill="white"/>
</g>
</g>
</svg>
