<svg width="137" height="107" viewBox="0 0 137 107" fill="none" xmlns="http://www.w3.org/2000/svg">
<g id="logo">
<g id="Savka Bakery">
<path d="M50.8882 46.9132C49.6924 46.9132 48.5779 46.6883 47.5447 46.2387C46.5115 45.7891 45.617 45.2342 44.8612 44.5741C44.115 43.9044 43.5649 43.2443 43.2109 42.5938C43.2875 42.4885 43.4549 42.3211 43.7132 42.0915C43.9715 41.8619 44.2441 41.6323 44.5311 41.4027C44.8181 41.1635 45.0525 40.9913 45.2343 40.8861C45.4448 41.1922 45.7174 41.551 46.0523 41.9624C46.3967 42.3737 46.808 42.7755 47.2864 43.1678C47.7647 43.56 48.3052 43.8901 48.9079 44.1579C49.5202 44.4162 50.1899 44.5454 50.9169 44.5454C51.8354 44.5454 52.5768 44.3732 53.1412 44.0288C53.7057 43.6748 54.117 43.2395 54.3753 42.7229C54.6336 42.1968 54.7628 41.6754 54.7628 41.1588C54.7628 40.5082 54.538 39.9581 54.0883 39.5085C53.6483 39.0493 53.0551 38.6523 52.3089 38.3174C51.5723 37.9826 50.7591 37.6813 49.8694 37.4134C48.7405 37.0594 47.7456 36.6576 46.8846 36.208C46.0236 35.7583 45.3491 35.1987 44.8612 34.529C44.3733 33.8593 44.1293 33.0175 44.1293 32.0034C44.1293 30.9798 44.4116 30.1283 44.976 29.4491C45.5404 28.7603 46.2866 28.2437 47.2146 27.8993C48.1522 27.5549 49.171 27.3827 50.2712 27.3827C51.2757 27.3827 52.2132 27.5166 53.0838 27.7845C53.964 28.0523 54.7293 28.3872 55.3798 28.789C56.0304 29.1812 56.5135 29.583 56.8292 29.9944C56.7431 30.1379 56.6044 30.334 56.413 30.5827C56.2217 30.8219 56.0208 31.0611 55.8103 31.3002C55.5999 31.5394 55.4229 31.726 55.2794 31.8599C55.0211 31.5729 54.6528 31.2572 54.1744 30.9128C53.6961 30.5588 53.1125 30.2575 52.4237 30.0087C51.7445 29.7504 50.9743 29.6213 50.1133 29.6213C49.1567 29.6213 48.3913 29.8509 47.8173 30.3101C47.2433 30.7597 46.9563 31.3672 46.9563 32.1325C46.9563 32.6874 47.1237 33.1371 47.4586 33.4815C47.803 33.8259 48.2287 34.1081 48.7357 34.3281C49.2523 34.5386 49.7737 34.7203 50.2999 34.8734C51.247 35.17 52.1558 35.4761 53.0264 35.7918C53.9066 36.1075 54.691 36.4854 55.3798 36.9255C56.0782 37.356 56.6283 37.8965 57.0301 38.547C57.4319 39.188 57.6328 39.9773 57.6328 40.9148C57.6328 41.9576 57.3649 42.9382 56.8292 43.8566C56.2935 44.7654 55.5185 45.5021 54.5045 46.0665C53.5 46.6309 52.2946 46.9132 50.8882 46.9132Z" fill="#ECEBE4"/>
<path d="M66.8935 47.0423C65.6977 47.0423 64.6119 46.8845 63.6361 46.5688C62.6698 46.2435 61.8997 45.7269 61.3257 45.0189C60.7517 44.3014 60.4647 43.3495 60.4647 42.1633C60.4647 41.0248 60.7852 40.0873 61.4262 39.3506C62.0671 38.6044 62.9329 38.0496 64.0235 37.686C65.1237 37.3225 66.353 37.1407 67.7115 37.1407C68.3333 37.1407 68.9456 37.1886 69.5483 37.2842C70.151 37.3799 70.6724 37.4851 71.1125 37.5999C71.5621 37.7147 71.8635 37.8056 72.0165 37.8726C71.9878 37.5569 71.9304 37.2364 71.8443 36.9111C71.7582 36.5859 71.6387 36.2941 71.4856 36.0358C71.122 35.3948 70.5911 34.8686 69.8927 34.4573C69.2039 34.0363 68.3381 33.8259 67.2954 33.8259C66.1856 33.8259 65.2481 34.065 64.4827 34.5434C63.727 35.0217 63.1577 35.5814 62.7751 36.2223L60.4504 34.6869C61.0722 33.7589 61.9954 32.9936 63.2199 32.3908C64.454 31.7881 65.846 31.4868 67.3958 31.4868C69.003 31.4868 70.3328 31.7977 71.3851 32.4195C72.4375 33.0318 73.2076 33.8354 73.6955 34.8304C73.9442 35.3374 74.1404 35.8923 74.2839 36.495C74.4274 37.0977 74.5135 37.8439 74.5422 38.7336C74.5613 39.6711 74.5804 40.4747 74.5996 41.1444C74.6283 41.8045 74.657 42.369 74.6857 42.8377C74.7335 43.4596 74.8292 43.8614 74.9727 44.0431C75.1162 44.2249 75.3218 44.3158 75.5897 44.3158C75.8959 44.3158 76.1494 44.1866 76.3503 43.9283C76.5607 43.6605 76.6851 43.2874 76.7234 42.809L78.101 44.3301C78.0436 45.1337 77.7614 45.746 77.2543 46.167C76.7473 46.5879 76.1542 46.7984 75.4749 46.7984C74.6713 46.7984 74.016 46.5783 73.509 46.1383C73.0115 45.6886 72.734 45.2055 72.6766 44.6889C72.4757 45.0429 72.1026 45.4016 71.5573 45.7651C71.012 46.1287 70.3376 46.4348 69.534 46.6836C68.7399 46.9227 67.8598 47.0423 66.8935 47.0423ZM67.4102 44.7893C68.3381 44.7893 69.2326 44.5837 70.0936 44.1723C70.9546 43.7609 71.6291 43.2682 72.117 42.6942C72.1074 42.1107 72.1074 41.5845 72.117 41.1157C72.1266 40.6469 72.1409 40.2164 72.16 39.8242C71.8826 39.7285 71.3517 39.6042 70.5672 39.4511C69.7827 39.2885 68.8978 39.2071 67.9124 39.2071C66.64 39.2071 65.559 39.4559 64.6693 39.9534C63.7796 40.4508 63.3347 41.1444 63.3347 42.0341C63.3347 43.1152 63.7126 43.847 64.4684 44.2297C65.2337 44.6028 66.2143 44.7893 67.4102 44.7893Z" fill="#ECEBE4"/>
<path d="M87.9109 31.085C88.5614 31.2094 89.1497 31.3529 89.6759 31.5155C90.2021 31.6686 90.513 31.7642 90.6087 31.8025C90.446 32.453 90.2117 33.2614 89.9055 34.2277C89.5994 35.1939 89.2502 36.2462 88.858 37.3847C88.4753 38.5136 88.0687 39.6568 87.6382 40.8144C87.2173 41.9719 86.8011 43.0721 86.3897 44.1149C85.9879 45.1577 85.6148 46.0617 85.2704 46.8271C84.9547 46.8845 84.5338 46.9132 84.0076 46.9132C83.7685 46.9132 83.5389 46.9036 83.3188 46.8845C83.1083 46.8653 82.9266 46.8462 82.7735 46.8271C82.0464 45.3251 81.3433 43.6987 80.664 41.948C79.9944 40.1973 79.363 38.4418 78.7698 36.6815C78.1863 34.9117 77.6649 33.2566 77.2057 31.7164C77.3779 31.6686 77.6218 31.6064 77.9375 31.5298C78.2628 31.4533 78.5928 31.372 78.9277 31.2859C79.2625 31.1998 79.54 31.128 79.76 31.0706C79.9035 31.6733 80.1092 32.4052 80.377 33.2662C80.6449 34.1176 80.9415 35.0313 81.2668 36.0071C81.592 36.9733 81.9221 37.93 82.2569 38.8771C82.6013 39.8242 82.9266 40.6948 83.2327 41.4888C83.5389 42.2829 83.7972 42.9286 84.0076 43.4261C84.3042 42.6607 84.6342 41.7615 84.9978 40.7283C85.3709 39.6855 85.744 38.5901 86.1171 37.4421C86.4902 36.2941 86.8346 35.17 87.1503 34.0698C87.466 32.9601 87.7195 31.9651 87.9109 31.085Z" fill="#ECEBE4"/>
<path d="M104.253 47.358C104.042 46.9945 103.751 46.5401 103.378 45.9948C103.004 45.4399 102.588 44.8467 102.129 44.2153C101.67 43.5839 101.201 42.9669 100.723 42.3642C100.244 41.7615 99.7948 41.2257 99.3739 40.757C98.9625 40.2882 98.6181 39.9438 98.3407 39.7238C98.1589 39.8673 97.9198 40.0586 97.6232 40.2978C97.3266 40.5274 97.0492 40.7522 96.7909 40.9722C96.5326 41.1922 96.3652 41.3405 96.2886 41.4171C96.2791 41.8284 96.2599 42.3211 96.2312 42.8951C96.2121 43.4596 96.1882 44.0288 96.1595 44.6028C96.1308 45.1768 96.1021 45.6934 96.0734 46.1526C96.0447 46.6118 96.0255 46.9419 96.016 47.1428C95.5568 47.2002 95.1071 47.2289 94.6671 47.2289C94.3801 47.2289 94.1026 47.2193 93.8348 47.2002C93.5765 47.181 93.3421 47.1523 93.1316 47.1141C93.1507 46.894 93.1794 46.3966 93.2177 45.6216C93.256 44.8467 93.299 43.8901 93.3469 42.7516C93.3947 41.6132 93.4473 40.3743 93.5047 39.0349C93.5621 37.6956 93.6147 36.3467 93.6626 34.9882C93.72 33.6297 93.7726 32.343 93.8204 31.128C93.8682 29.9035 93.9017 28.8416 93.9209 27.9423C93.9496 27.0335 93.9639 26.3734 93.9639 25.962C94.1457 25.9524 94.3466 25.9429 94.5666 25.9333C94.7866 25.9237 95.0019 25.9189 95.2124 25.9189C95.8342 25.9189 96.346 25.9763 96.7478 26.0911C96.7478 26.8087 96.7383 27.6314 96.7191 28.5594C96.7 29.4873 96.6761 30.444 96.6474 31.4294C96.6282 32.4148 96.5995 33.3619 96.5613 34.2707C96.5326 35.1796 96.5039 35.9832 96.4752 36.6815C96.4465 37.3799 96.4226 37.8965 96.4034 38.2313C96.9583 37.6669 97.628 37.0929 98.4124 36.5093C99.1969 35.9162 100.005 35.347 100.838 34.8017C101.679 34.2564 102.469 33.7637 103.205 33.3236C103.942 32.8835 104.54 32.5248 104.999 32.2473C105.152 32.41 105.329 32.63 105.53 32.9074C105.741 33.1753 105.937 33.448 106.118 33.7254C106.31 33.9933 106.453 34.2085 106.549 34.3712C106.214 34.5625 105.769 34.8208 105.214 35.1461C104.66 35.4713 104.066 35.8253 103.435 36.208C102.804 36.5906 102.21 36.9637 101.656 37.3273C101.11 37.6813 100.68 37.9778 100.364 38.217C100.622 38.4179 101.015 38.8053 101.541 39.3793C102.067 39.9534 102.651 40.6326 103.291 41.4171C103.932 42.192 104.569 43.0099 105.2 43.8709C105.831 44.7224 106.382 45.526 106.85 46.2818C106.745 46.3583 106.515 46.4731 106.162 46.6262C105.808 46.7697 105.444 46.9132 105.071 47.0567C104.698 47.2097 104.425 47.3102 104.253 47.358Z" fill="#ECEBE4"/>
<path d="M114.568 47.0423C113.373 47.0423 112.287 46.8845 111.311 46.5688C110.345 46.2435 109.575 45.7269 109.001 45.0189C108.427 44.3014 108.14 43.3495 108.14 42.1633C108.14 41.0248 108.46 40.0873 109.101 39.3506C109.742 38.6044 110.608 38.0496 111.698 37.686C112.799 37.3225 114.028 37.1407 115.386 37.1407C116.008 37.1407 116.62 37.1886 117.223 37.2842C117.826 37.3799 118.347 37.4851 118.787 37.5999C119.237 37.7147 119.538 37.8056 119.691 37.8726C119.663 37.5569 119.605 37.2364 119.519 36.9111C119.433 36.5859 119.314 36.2941 119.16 36.0358C118.797 35.3948 118.266 34.8686 117.568 34.4573C116.879 34.0363 116.013 33.8259 114.97 33.8259C113.86 33.8259 112.923 34.065 112.158 34.5434C111.402 35.0217 110.833 35.5814 110.45 36.2223L108.125 34.6869C108.747 33.7589 109.67 32.9936 110.895 32.3908C112.129 31.7881 113.521 31.4868 115.071 31.4868C116.678 31.4868 118.008 31.7977 119.06 32.4195C120.112 33.0318 120.882 33.8354 121.37 34.8304C121.619 35.3374 121.815 35.8923 121.959 36.495C122.102 37.0977 122.188 37.8439 122.217 38.7336C122.236 39.6711 122.255 40.4747 122.274 41.1444C122.303 41.8045 122.332 42.369 122.361 42.8377C122.408 43.4596 122.504 43.8614 122.648 44.0431C122.791 44.2249 122.997 44.3158 123.265 44.3158C123.571 44.3158 123.824 44.1866 124.025 43.9283C124.236 43.6605 124.36 43.2874 124.398 42.809L125.776 44.3301C125.718 45.1337 125.436 45.746 124.929 46.167C124.422 46.5879 123.829 46.7984 123.15 46.7984C122.346 46.7984 121.691 46.5783 121.184 46.1383C120.686 45.6886 120.409 45.2055 120.352 44.6889C120.151 45.0429 119.778 45.4016 119.232 45.7651C118.687 46.1287 118.012 46.4348 117.209 46.6836C116.415 46.9227 115.535 47.0423 114.568 47.0423ZM115.085 44.7893C116.013 44.7893 116.907 44.5837 117.768 44.1723C118.63 43.7609 119.304 43.2682 119.792 42.6942C119.782 42.1107 119.782 41.5845 119.792 41.1157C119.801 40.6469 119.816 40.2164 119.835 39.8242C119.557 39.7285 119.027 39.6042 118.242 39.4511C117.458 39.2885 116.573 39.2071 115.587 39.2071C114.315 39.2071 113.234 39.4559 112.344 39.9534C111.454 40.4508 111.01 41.1444 111.01 42.0341C111.01 43.1152 111.387 43.847 112.143 44.2297C112.909 44.6028 113.889 44.7893 115.085 44.7893Z" fill="#ECEBE4"/>
<path d="M44.933 75.1829C44.933 74.8193 44.9377 74.2262 44.9473 73.4035C44.9569 72.5807 44.9664 71.6241 44.976 70.5334C44.9951 69.4333 45.0143 68.2805 45.0334 67.0751C45.0525 65.8601 45.0669 64.6738 45.0765 63.5162C45.0956 62.3491 45.1099 61.2872 45.1195 60.3305C45.1386 59.3643 45.153 58.5846 45.1626 57.9914C45.1721 57.3887 45.1769 57.0587 45.1769 57.0013C45.7987 56.9439 46.6215 56.8817 47.6451 56.8147C48.6783 56.7382 49.7737 56.6999 50.9313 56.6999C51.9645 56.6999 52.8877 56.8482 53.7009 57.1448C54.514 57.4318 55.155 57.891 55.6238 58.5224C56.0926 59.1538 56.3269 59.9813 56.3269 61.005C56.3269 61.7129 56.1691 62.3921 55.8534 63.0427C55.5377 63.6837 55.1359 64.229 54.648 64.6786C54.1696 65.1187 53.6722 65.3961 53.1556 65.5109C53.2417 65.5013 53.3517 65.5013 53.4856 65.5109C54.3084 65.5396 55.0546 65.7262 55.7242 66.0706C56.4035 66.4054 56.944 66.8742 57.3458 67.4769C57.7476 68.0796 57.9485 68.7827 57.9485 69.5863C57.9485 70.8013 57.6902 71.7915 57.1736 72.5568C56.657 73.3221 55.9347 73.9105 55.0067 74.3219C54.0883 74.7332 53.0216 75.0155 51.8067 75.1685C50.5917 75.3216 49.2858 75.3981 47.8891 75.3981C47.3438 75.3981 46.8128 75.3838 46.2962 75.3551C45.7796 75.3168 45.3252 75.2594 44.933 75.1829ZM47.9034 64.736C48.9558 64.7264 49.7689 64.6882 50.3429 64.6212C50.9169 64.5542 51.3953 64.4203 51.778 64.2194C52.3328 64.0089 52.8112 63.6454 53.213 63.1288C53.6148 62.6026 53.8157 62.0143 53.8157 61.3637C53.8157 60.4262 53.5334 59.7661 52.969 59.3834C52.4046 59.0007 51.6488 58.8094 50.7017 58.8094C50.1755 58.8094 49.6446 58.8381 49.1088 58.8955C48.5827 58.9529 48.1665 59.0007 47.8604 59.039L47.9034 64.736ZM47.9321 72.7147C47.9991 72.7147 48.09 72.7147 48.2048 72.7147C48.3291 72.7147 48.4631 72.7147 48.6066 72.7147C49.7355 72.7147 50.8069 72.6381 51.821 72.4851C52.8351 72.332 53.6626 72.0258 54.3036 71.5666C54.9541 71.0979 55.2794 70.4091 55.2794 69.5002C55.2794 68.8401 55.0737 68.3283 54.6623 67.9648C54.251 67.5917 53.7009 67.3286 53.0121 67.1755C52.3233 67.0224 51.5531 66.9459 50.7017 66.9459C50.5391 66.9459 50.276 66.9507 49.9124 66.9603C49.5585 66.9698 49.1949 66.9842 48.8218 67.0033C48.4487 67.0129 48.1569 67.0272 47.9465 67.0464L47.9321 72.7147Z" fill="#ECEBE4"/>
<path d="M67.2019 75.7425C66.006 75.7425 64.9202 75.5847 63.9444 75.269C62.9781 74.9437 62.208 74.4271 61.634 73.7192C61.06 73.0017 60.773 72.0498 60.773 70.8635C60.773 69.725 61.0935 68.7875 61.7345 68.0509C62.3754 67.3047 63.2412 66.7498 64.3318 66.3863C65.432 66.0227 66.6613 65.841 68.0198 65.841C68.6416 65.841 69.2539 65.8888 69.8566 65.9845C70.4593 66.0801 70.9807 66.1854 71.4208 66.3002C71.8704 66.415 72.1718 66.5058 72.3248 66.5728C72.2961 66.2571 72.2387 65.9366 72.1526 65.6114C72.0665 65.2861 71.947 64.9943 71.7939 64.736C71.4304 64.095 70.8994 63.5689 70.201 63.1575C69.5122 62.7365 68.6464 62.5261 67.6037 62.5261C66.4939 62.5261 65.5564 62.7652 64.791 63.2436C64.0353 63.7219 63.466 64.2816 63.0834 64.9225L60.7587 63.3871C61.3805 62.4591 62.3037 61.6938 63.5282 61.0911C64.7623 60.4884 66.1543 60.187 67.7041 60.187C69.3113 60.187 70.6411 60.4979 71.6934 61.1198C72.7458 61.732 73.5159 62.5356 74.0038 63.5306C74.2525 64.0376 74.4487 64.5925 74.5922 65.1952C74.7357 65.7979 74.8218 66.5441 74.8505 67.4338C74.8696 68.3714 74.8887 69.175 74.9079 69.8446C74.9366 70.5047 74.9653 71.0692 74.994 71.5379C75.0418 72.1598 75.1375 72.5616 75.281 72.7434C75.4245 72.9251 75.6301 73.016 75.898 73.016C76.2042 73.016 76.4577 72.8869 76.6586 72.6286C76.869 72.3607 76.9934 71.9876 77.0317 71.5092L78.4093 73.0304C78.3519 73.834 78.0697 74.4462 77.5626 74.8672C77.0556 75.2881 76.4625 75.4986 75.7832 75.4986C74.9796 75.4986 74.3243 75.2785 73.8173 74.8385C73.3198 74.3888 73.0423 73.9057 72.9849 73.3891C72.784 73.7431 72.4109 74.1018 71.8656 74.4654C71.3203 74.8289 70.6459 75.135 69.8423 75.3838C69.0482 75.6229 68.1681 75.7425 67.2019 75.7425ZM67.7185 73.4896C68.6464 73.4896 69.5409 73.2839 70.4019 72.8725C71.2629 72.4611 71.9374 71.9684 72.4253 71.3944C72.4157 70.8109 72.4157 70.2847 72.4253 69.8159C72.4349 69.3472 72.4492 68.9167 72.4683 68.5244C72.1909 68.4288 71.66 68.3044 70.8755 68.1513C70.091 67.9887 69.2061 67.9074 68.2207 67.9074C66.9483 67.9074 65.8673 68.1561 64.9776 68.6536C64.0879 69.151 63.643 69.8446 63.643 70.7343C63.643 71.8154 64.0209 72.5472 64.7767 72.9299C65.542 73.303 66.5226 73.4896 67.7185 73.4896Z" fill="#ECEBE4"/>
<path d="M91.108 76.0582C90.8975 75.6947 90.6058 75.2403 90.2327 74.695C89.8596 74.1401 89.4434 73.547 88.9842 72.9156C88.525 72.2841 88.0562 71.6671 87.5779 71.0644C87.0996 70.4617 86.6499 69.9259 86.229 69.4572C85.8176 68.9884 85.4732 68.644 85.1958 68.424C85.014 68.5675 84.7748 68.7588 84.4783 68.998C84.1817 69.2276 83.9043 69.4524 83.646 69.6724C83.3877 69.8925 83.2202 70.0407 83.1437 70.1173C83.1341 70.5287 83.115 71.0213 83.0863 71.5953C83.0672 72.1598 83.0433 72.729 83.0145 73.303C82.9859 73.877 82.9572 74.3936 82.9285 74.8528C82.8998 75.312 82.8806 75.6421 82.8711 75.843C82.4118 75.9004 81.9622 75.9291 81.5221 75.9291C81.2351 75.9291 80.9577 75.9195 80.6898 75.9004C80.4315 75.8812 80.1971 75.8525 79.9867 75.8143C80.0058 75.5942 80.0345 75.0968 80.0728 74.3219C80.111 73.547 80.1541 72.5903 80.2019 71.4518C80.2498 70.3134 80.3024 69.0745 80.3598 67.7352C80.4172 66.3958 80.4698 65.0469 80.5176 63.6884C80.575 62.33 80.6277 61.0432 80.6755 59.8283C80.7233 58.6037 80.7568 57.5418 80.7759 56.6425C80.8046 55.7337 80.819 55.0736 80.819 54.6622C81.0008 54.6526 81.2017 54.6431 81.4217 54.6335C81.6417 54.6239 81.857 54.6192 82.0674 54.6192C82.6893 54.6192 83.2011 54.6766 83.6029 54.7914C83.6029 55.5089 83.5933 56.3316 83.5742 57.2596C83.5551 58.1876 83.5312 59.1442 83.5025 60.1296C83.4833 61.115 83.4546 62.0621 83.4164 62.9709C83.3877 63.8798 83.359 64.6834 83.3303 65.3817C83.3016 66.0801 83.2776 66.5967 83.2585 66.9316C83.8134 66.3671 84.483 65.7931 85.2675 65.2095C86.052 64.6164 86.8604 64.0472 87.6927 63.5019C88.5346 62.9566 89.3238 62.4639 90.0605 62.0238C90.7971 61.5838 91.395 61.225 91.8542 60.9476C92.0073 61.1102 92.1843 61.3302 92.3852 61.6077C92.5956 61.8755 92.7918 62.1482 92.9735 62.4256C93.1649 62.6935 93.3084 62.9087 93.404 63.0714C93.0692 63.2627 92.6243 63.521 92.0695 63.8463C91.5146 64.1716 90.9215 64.5255 90.2901 64.9082C89.6586 65.2909 89.0655 65.664 88.5106 66.0275C87.9653 66.3815 87.5348 66.678 87.2191 66.9172C87.4774 67.1181 87.8697 67.5056 88.3958 68.0796C88.922 68.6536 89.5056 69.3328 90.1466 70.1173C90.7875 70.8922 91.4237 71.7101 92.0551 72.5712C92.6865 73.4226 93.2366 74.2262 93.7054 74.982C93.6001 75.0585 93.3705 75.1733 93.0166 75.3264C92.6626 75.4699 92.2991 75.6134 91.926 75.7569C91.5529 75.91 91.2802 76.0104 91.108 76.0582Z" fill="#ECEBE4"/>
<path d="M109.12 72.2411C108.862 72.6046 108.441 73.0256 107.857 73.5039C107.283 73.9822 106.547 74.3984 105.647 74.7524C104.748 75.1063 103.681 75.2833 102.447 75.2833C100.285 75.2833 98.5488 74.6328 97.2382 73.3317C95.9276 72.0306 95.2722 70.1651 95.2722 67.7352C95.2722 66.1854 95.5927 64.8412 96.2337 63.7028C96.8842 62.5643 97.7739 61.6842 98.9028 61.0624C100.032 60.4405 101.328 60.1296 102.792 60.1296C104.619 60.1296 106.049 60.6893 107.082 61.8086C108.116 62.9279 108.69 64.4299 108.804 66.3145C108.843 66.9172 108.838 67.5008 108.79 68.0652C108.666 68.0557 108.407 68.0461 108.015 68.0365C107.632 68.0174 107.183 68.003 106.666 67.9935C106.15 67.9743 105.628 67.96 105.102 67.9504C104.585 67.9313 104.141 67.9217 103.768 67.9217C102.801 67.9217 101.806 67.9696 100.783 68.0652C99.7686 68.1609 98.8693 68.2709 98.0849 68.3953C98.0944 68.644 98.1183 68.888 98.1566 69.1271C98.1949 69.3663 98.2427 69.5959 98.3001 69.8159C98.5393 70.6961 99.0702 71.3897 99.893 71.8967C100.725 72.4037 101.639 72.6573 102.634 72.6573C103.571 72.6573 104.356 72.4803 104.987 72.1263C105.619 71.7628 106.121 71.3753 106.494 70.9639C106.867 70.543 107.135 70.2464 107.298 70.0742C107.384 70.1412 107.551 70.2991 107.8 70.5478C108.049 70.7965 108.302 71.0787 108.56 71.3944C108.828 71.7101 109.015 71.9924 109.12 72.2411ZM98.1279 66.4724C98.8167 66.3576 99.6251 66.2571 100.553 66.171C101.491 66.0849 102.553 66.0419 103.739 66.0419C104.361 66.0419 104.887 66.0514 105.317 66.0706C105.748 66.0897 106.054 66.104 106.236 66.1136C106.236 65.7979 106.197 65.4631 106.121 65.1091C106.016 64.6403 105.824 64.1811 105.547 63.7315C105.269 63.2723 104.892 62.8944 104.413 62.5978C103.944 62.2917 103.351 62.1386 102.634 62.1386C101.39 62.1386 100.338 62.5261 99.4768 63.301C98.6158 64.0759 98.1662 65.133 98.1279 66.4724Z" fill="#ECEBE4"/>
<path d="M114.064 62.727C114.351 62.2486 114.767 61.8086 115.312 61.4068C115.867 61.005 116.489 60.6845 117.178 60.4453C117.876 60.1966 118.575 60.0722 119.273 60.0722C119.723 60.0722 120.177 60.1153 120.636 60.2014C121.095 60.2779 121.454 60.3879 121.713 60.5314L121.139 63.4158C120.909 63.3201 120.612 63.2197 120.249 63.1144C119.895 62.9996 119.455 62.9422 118.929 62.9422C118.077 62.9422 117.245 63.167 116.432 63.6167C115.619 64.0568 114.982 64.6212 114.523 65.31C114.657 65.9797 114.786 66.7976 114.911 67.7639C115.045 68.7301 115.164 69.7203 115.269 70.7343C115.375 71.7484 115.461 72.6764 115.528 73.5183C115.595 74.3506 115.628 74.9772 115.628 75.3981C115.217 75.4364 114.714 75.4603 114.121 75.4699C113.528 75.4794 112.983 75.4794 112.485 75.4699C112.485 73.9775 112.428 72.3703 112.313 70.6482C112.208 68.9167 112.041 67.1946 111.811 65.4822C111.581 63.7602 111.29 62.1769 110.936 60.7323C111.194 60.6558 111.495 60.5792 111.84 60.5027C112.194 60.4262 112.519 60.3592 112.815 60.3018C113.112 60.2444 113.313 60.2109 113.418 60.2014C113.533 60.5266 113.657 60.9476 113.791 61.4642C113.935 61.9808 114.026 62.4017 114.064 62.727Z" fill="#ECEBE4"/>
<path d="M128.641 83.018C127.302 83.018 126.111 82.8076 125.068 82.3866C124.025 81.9657 123.212 81.5495 122.628 81.1382C122.695 80.9564 122.81 80.7077 122.973 80.392C123.135 80.0858 123.307 79.7797 123.489 79.4736C123.671 79.1674 123.824 78.933 123.948 78.7704C124.207 78.9617 124.589 79.1866 125.096 79.4449C125.604 79.7127 126.173 79.9471 126.804 80.148C127.445 80.3489 128.096 80.4494 128.756 80.4494C129.607 80.4494 130.329 80.2245 130.923 79.7749C131.516 79.3348 131.994 78.7321 132.358 77.9668C132.721 77.211 132.984 76.3548 133.147 75.3981C133.319 74.4414 133.41 73.4561 133.42 72.442C133.257 72.8055 132.999 73.1739 132.645 73.547C132.3 73.9201 131.841 74.2358 131.267 74.4941C130.693 74.7428 129.99 74.8672 129.158 74.8672C127.79 74.8672 126.732 74.4702 125.986 73.6761C125.24 72.8725 124.719 71.7819 124.422 70.4043C124.135 69.0171 123.992 67.4482 123.992 65.6974C123.992 65.0278 124.006 64.3342 124.035 63.6167C124.063 62.8992 124.097 62.1578 124.135 61.3924C124.259 61.3637 124.441 61.3446 124.68 61.335C124.919 61.3255 125.173 61.3207 125.441 61.3207C125.747 61.3207 126.048 61.3302 126.345 61.3494C126.641 61.3589 126.842 61.3781 126.948 61.4068C126.928 61.5216 126.895 61.799 126.847 62.2391C126.809 62.6696 126.771 63.191 126.732 63.8032C126.704 64.4059 126.689 65.0326 126.689 65.6831C126.689 66.4484 126.723 67.2186 126.79 67.9935C126.857 68.7588 126.986 69.462 127.177 70.1029C127.378 70.7439 127.67 71.2605 128.053 71.6527C128.435 72.0354 128.947 72.2268 129.588 72.2268C130.66 72.2268 131.511 71.7676 132.142 70.8491C132.774 69.9212 133.152 68.5866 133.276 66.8455C133.314 66.3958 133.343 65.8936 133.362 65.3387C133.391 64.7838 133.415 64.2433 133.434 63.7171C133.453 63.191 133.463 62.7461 133.463 62.3826C133.472 62.0095 133.472 61.7847 133.463 61.7081C133.778 61.6699 134.099 61.6507 134.424 61.6507C135.008 61.6507 135.539 61.7081 136.017 61.8229C136.055 62.6265 136.074 63.5832 136.074 64.6929C136.074 66.0706 136.041 67.6491 135.974 69.4285C135.907 71.1983 135.83 72.9347 135.744 74.6376C135.658 76.2543 135.342 77.6941 134.797 78.957C134.261 80.2198 133.482 81.2099 132.458 81.9274C131.444 82.6545 130.172 83.018 128.641 83.018Z" fill="#ECEBE4"/>
</g>
<g id="Group 5">
<path id="Rectangle 14" d="M26.978 32.3909C27.8291 35.5672 25.9442 38.832 22.7679 39.6831C21.9168 36.5068 23.8018 33.242 26.978 32.3909Z" fill="#ECEBE4"/>
<path id="Rectangle 22" d="M8.00098 73.6967C7.1499 70.5204 9.03484 67.2556 12.2111 66.4045C13.0622 69.5808 11.1773 72.8456 8.00098 73.6967Z" fill="#ECEBE4"/>
<path id="Rectangle 15" d="M26.978 40.1639C27.8291 43.3402 25.9442 46.605 22.7679 47.4561C21.9168 44.2798 23.8018 41.015 26.978 40.1639Z" fill="#ECEBE4"/>
<path id="Rectangle 23" d="M8.00098 65.9238C7.1499 62.7475 9.03484 59.4827 12.2111 58.6316C13.0622 61.8079 11.1773 65.0727 8.00098 65.9238Z" fill="#ECEBE4"/>
<path id="Rectangle 17" d="M26.978 47.9368C27.8291 51.1131 25.9442 54.3779 22.7679 55.229C21.9168 52.0527 23.8018 48.7879 26.978 47.9368Z" fill="#ECEBE4"/>
<path id="Rectangle 24" d="M8.00098 58.1508C7.1499 54.9745 9.03484 51.7097 12.2111 50.8586C13.0622 54.0349 11.1773 57.2997 8.00098 58.1508Z" fill="#ECEBE4"/>
<path id="Rectangle 19" d="M26.978 55.7098C27.8291 58.8861 25.9442 62.1509 22.7679 63.002C21.9168 59.8257 23.8018 56.5609 26.978 55.7098Z" fill="#ECEBE4"/>
<path id="Rectangle 25" d="M8.00098 50.3779C7.1499 47.2016 9.03484 43.9368 12.2111 43.0857C13.0622 46.262 11.1773 49.5268 8.00098 50.3779Z" fill="#ECEBE4"/>
<path id="Vector 21" d="M6.57715 28.9548V28.3957C6.57715 25.7711 8.70483 23.6434 11.3295 23.6434V23.6434C12.634 23.6434 16.8605 21.97 15.5227 15.816C14.1813 9.64553 9.75019 2.96008 15.8198 1.19581C16.3554 1.0401 16.9217 1 17.4795 1V1" stroke="white" stroke-width="2"/>
<path id="Vector 25" d="M28.4009 77.1329L28.4009 77.692C28.4009 80.3166 26.2732 82.4443 23.6486 82.4443V82.4443C22.344 82.4443 18.1175 84.1176 19.4554 90.2716C20.7968 96.4421 25.2278 103.128 19.1583 104.892C18.6226 105.048 18.0563 105.088 17.4985 105.088V105.088" stroke="white" stroke-width="2"/>
<path id="Vector 23" d="M17.4802 1V1C18.0237 1 18.5754 1.04017 19.0962 1.19544C25.0119 2.95916 20.694 9.6451 19.3869 15.816C18.0834 21.97 22.2015 23.6434 23.4726 23.6434V23.6434C26.0299 23.6434 28.103 25.7165 28.103 28.2738V28.9548L28.103 66.6219" stroke="white" stroke-width="2"/>
<path id="Vector 26" d="M17.4998 105.088V105.088C16.9563 105.088 16.4046 105.047 15.8838 104.892C9.96804 103.128 14.286 96.4425 15.5931 90.2716C16.8966 84.1176 12.7785 82.4443 11.5074 82.4443V82.4443C8.95008 82.4443 6.87696 80.3712 6.87696 77.8138L6.87696 77.1329L6.87696 39.4658" stroke="white" stroke-width="2"/>
<path id="Rectangle 13" d="M29.2279 32.3911C32.4041 33.2422 34.2891 36.507 33.438 39.6833C30.2617 38.8322 28.3768 35.5674 29.2279 32.3911Z" fill="#ECEBE4"/>
<path id="Rectangle 26" d="M5.75115 73.6968C2.57488 72.8457 0.689937 69.5809 1.54102 66.4046C4.71729 67.2557 6.60223 70.5205 5.75115 73.6968Z" fill="#ECEBE4"/>
<path id="Rectangle 16" d="M29.2279 40.1636C32.4041 41.0147 34.2891 44.2795 33.438 47.4557C30.2617 46.6047 28.3768 43.3398 29.2279 40.1636Z" fill="#ECEBE4"/>
<path id="Rectangle 27" d="M5.75115 65.9236C2.57488 65.0725 0.689937 61.8077 1.54102 58.6314C4.71729 59.4825 6.60223 62.7473 5.75115 65.9236Z" fill="#ECEBE4"/>
<path id="Rectangle 18" d="M29.2279 47.9365C32.4041 48.7876 34.2891 52.0524 33.438 55.2287C30.2617 54.3776 28.3768 51.1128 29.2279 47.9365Z" fill="#ECEBE4"/>
<path id="Rectangle 28" d="M5.75115 58.1511C2.57488 57.3 0.689937 54.0352 1.54102 50.859C4.71729 51.71 6.60223 54.9749 5.75115 58.1511Z" fill="#ECEBE4"/>
<path id="Rectangle 20" d="M29.2279 55.71C32.4041 56.561 34.2891 59.8259 33.438 63.0021C30.2617 62.151 28.3768 58.8862 29.2279 55.71Z" fill="#ECEBE4"/>
<path id="Rectangle 29" d="M5.75115 50.3777C2.57488 49.5266 0.689937 46.2618 1.54102 43.0855C4.71729 43.9366 6.60223 47.2014 5.75115 50.3777Z" fill="#ECEBE4"/>
<path id="Rectangle 21" d="M28.1263 63.7818C30.4515 66.107 30.4515 69.8769 28.1263 72.2021C25.8011 69.8769 25.8011 66.107 28.1263 63.7818Z" fill="#ECEBE4"/>
<path id="Rectangle 30" d="M6.85125 42.3058C4.52606 39.9806 4.52606 36.2108 6.85125 33.8856C9.17644 36.2108 9.17644 39.9806 6.85125 42.3058Z" fill="#ECEBE4"/>
</g>
</g>
</svg>
