<svg width="21" height="26" viewBox="0 0 21 26" fill="none" xmlns="http://www.w3.org/2000/svg">
<g id="Vector">
<path d="M1 10.6077C1 17.0787 6.74023 22.43 9.28101 24.4816C9.64463 24.7753 9.82863 24.9238 10.0999 24.9992C10.3112 25.0578 10.6221 25.0578 10.8333 24.9992C11.1051 24.9237 11.2878 24.7766 11.6528 24.4818C14.1936 22.4302 19.9335 17.0793 19.9335 10.6083C19.9335 8.15943 18.9362 5.81056 17.1608 4.07894C15.3854 2.34732 12.9777 1.37451 10.4669 1.37451C7.95616 1.37451 5.54813 2.34747 3.77276 4.07909C1.99739 5.81071 1 8.15884 1 10.6077Z" stroke="white" stroke-width="1.5" stroke-linecap="round" stroke-linejoin="round"/>
<path d="M7.762 9.37688C7.762 10.8501 8.97299 12.0443 10.4668 12.0443C11.9606 12.0443 13.1716 10.8501 13.1716 9.37688C13.1716 7.90369 11.9606 6.70943 10.4668 6.70943C8.97299 6.70943 7.762 7.90369 7.762 9.37688Z" stroke="white" stroke-width="1.5" stroke-linecap="round" stroke-linejoin="round"/>
</g>
</svg>
