<svg width="26" height="27" viewBox="0 0 26 27" fill="none" xmlns="http://www.w3.org/2000/svg">
<path id="Vector" d="M9.66996 3.29817C9.26499 2.29972 8.28443 1.64502 7.19402 1.64502H3.52632C2.13107 1.64502 1 2.7602 1 4.13619C1 15.832 10.6144 25.3137 22.474 25.3137C23.8692 25.3137 25 24.1981 25 22.8221L25.0006 19.2045C25.0006 18.1291 24.3369 17.1623 23.3245 16.7629L19.8093 15.3767C18.8998 15.018 17.8644 15.1794 17.1119 15.7978L16.2047 16.544C15.1452 17.4148 13.5862 17.3455 12.6109 16.3837L10.0563 13.8621C9.08106 12.9003 9.00899 11.3641 9.89193 10.3192L10.6484 9.42451C11.2755 8.68244 11.4407 7.66101 11.0769 6.76414L9.66996 3.29817Z" stroke="white" stroke-width="1.5" stroke-linecap="round" stroke-linejoin="round"/>
</svg>
